<?xml version="1.0" encoding="utf-8"?>
<!-- Generator: Adobe Illustrator 16.0.0, SVG Export Plug-In . SVG Version: 6.00 Build 0)  -->
<!DOCTYPE svg PUBLIC "-//W3C//DTD SVG 1.1//EN" "http://www.w3.org/Graphics/SVG/1.1/DTD/svg11.dtd">
<svg version="1.1" id="Layer_1" xmlns="http://www.w3.org/2000/svg" xmlns:xlink="http://www.w3.org/1999/xlink" x="0px" y="0px"
	 width="1800px" height="400px" viewBox="0 0 1800 400" enable-background="new 0 0 1800 400" xml:space="preserve">
<g>
	<rect y="45.578" fill="none" width="1800" height="431.623"/>
	<path fill="#E65A25" d="M188.517,118.689l-46.16,13.711c-7.466-30.925-21.331-46.389-41.59-46.389
		c-8.684,0-15.996,2.896-21.938,8.684c-6.249,6.095-9.369,13.79-9.369,23.08c0,11.426,4.342,21.862,13.025,31.307
		c5.634,6.095,19.424,17.521,41.361,34.277c22.395,17.367,37.934,31.307,46.617,41.819c13.404,16.303,20.109,35.42,20.109,57.357
		c0,23.004-7.694,41.896-23.08,56.672c-15.692,15.082-36.487,22.623-62.385,22.623c-53.323,0-84.933-29.25-94.834-87.75
		l46.16-13.482c6.398,37.326,22.623,55.986,48.674,55.986c10.969,0,19.652-3.35,26.051-10.055
		c6.398-6.549,9.598-15.082,9.598-25.594c0-10.969-4.038-21.023-12.111-30.164c-6.706-7.77-18.131-17.975-34.277-30.621
		c-23.462-18.281-37.555-29.708-42.275-34.278c-21.634-20.87-32.449-43.646-32.449-68.326c0-24.526,8.759-43.95,26.279-58.271
		c14.775-12.34,33.135-18.51,55.072-18.51C145.934,40.765,175.109,66.741,188.517,118.689z"/>
	<path fill="#E65A25" d="M312.601,89.896V357.26h-48.445V89.896h-60.557V45.335h169.33v44.561H312.601z"/>
	<path fill="#E65A25" d="M566.71,144.511v113.573c0,17.52-1.371,31.992-4.113,43.418s-7.313,21.559-13.711,30.393
		c-14.475,19.959-36.87,29.936-67.184,29.936c-30.471,0-52.94-9.977-67.412-29.936c-7.62-10.662-12.568-22.545-14.854-35.648
		c-1.981-11.73-2.971-24.451-2.971-38.162V144.511c0-17.517,1.371-31.992,4.113-43.418s7.313-21.556,13.711-30.393
		c14.625-19.956,37.095-29.936,67.412-29.936c30.314,0,52.708,9.979,67.184,29.936c7.77,10.665,12.718,22.548,14.854,35.648
		C565.717,118.082,566.71,130.8,566.71,144.511z M444.911,145.425V257.17c0,14.932,0.607,25.137,1.828,30.621
		c4.417,19.195,16.071,28.793,34.963,28.793c14.472,0,24.601-5.635,30.393-16.91c3.199-6.092,5.027-12.797,5.484-20.109
		c0.457-6.092,0.686-13.559,0.686-22.395V145.425c0-15.082-0.61-25.365-1.828-30.85c-4.267-19.042-15.846-28.564-34.734-28.564
		c-14.625,0-24.833,5.638-30.621,16.91c-3.199,6.095-5.027,12.722-5.484,19.881C445.14,129.051,444.911,136.592,444.911,145.425z"/>
	<path fill="#E65A25" d="M659.716,229.291V357.26h-48.445V45.335h75.867c26.812,0,47.378,6.249,61.699,18.738
		c18.585,16.149,27.879,39.687,27.879,70.611c0,39.612-14.018,66.651-42.047,81.124l45.932,141.451h-50.73l-41.361-127.969H659.716z
		 M659.716,184.73h17.596c13.254,0,22.698-1.218,28.336-3.656c14.168-6.091,21.252-20.716,21.252-43.875
		c0-17.06-3.963-29.479-11.883-37.248c-4.57-4.72-10.133-7.616-16.682-8.684c-5.792-0.914-12.797-1.371-21.023-1.371h-17.596V184.73
		z"/>
	<path fill="#E65A25" d="M919.081,235.461V357.26h-48.445V235.461L800.71,45.335h53.244l41.59,131.854l43.189-131.854h52.33
		L919.081,235.461z"/>
	<path fill="#E65A25" d="M1071.272,230.891V357.26h-48.445V45.335h80.209c29.857,0,51.72,6.706,65.584,20.109
		c16.453,15.846,24.68,40.069,24.68,72.668c0,32.603-8.227,56.825-24.68,72.668c-7.313,7.008-16.149,12.111-26.508,15.311
		c-10.361,3.199-23.387,4.799-39.076,4.799H1071.272z M1071.272,186.33h21.023c17.824,0,30.314-2.817,37.477-8.455
		c9.141-6.855,13.711-20.109,13.711-39.762s-4.57-32.906-13.711-39.762c-7.162-5.634-19.652-8.455-37.477-8.455h-21.023V186.33z"/>
	<path fill="#E65A25" d="M1274.651,45.335V357.26h-48.445V45.335H1274.651z"/>
	<path fill="#E65A25" d="M1492.427,146.796h-48.217c0-2.892,0-5.027,0-6.398c0-36.255-12.189-54.387-36.563-54.387
		c-13.254,0-22.776,5.106-28.564,15.311c-3.506,6.398-5.638,13.254-6.398,20.566c-0.61,7.009-0.914,15.082-0.914,24.223v103.747
		c0,21.787,1.75,37.326,5.256,46.617c5.178,13.406,15.614,20.109,31.307,20.109c24.83,0,37.248-20.414,37.248-61.242
		c0-1.828,0-4.418,0-7.77h48.217c0.15,5.334,0.229,9.219,0.229,11.654c0,30.164-6.095,54.082-18.281,71.754
		c-14.321,20.566-36.791,30.85-67.412,30.85c-32.449,0-55.758-11.576-69.926-34.734c-7.466-12.033-11.883-25.365-13.254-39.99
		c-1.221-12.188-1.828-26.813-1.828-43.875v-87.065c0-29.857,1.903-50.577,5.713-62.156c6.702-20.716,18.889-35.42,36.563-44.104
		c12.187-6.091,26.201-9.141,42.047-9.141c26.508,0,47.149,8.151,61.928,24.451c15.386,17.063,23.08,40.904,23.08,71.525
		C1492.655,139.18,1492.577,142.533,1492.427,146.796z"/>
	<path fill="#E65A25" d="M1582.69,45.335v129.111l69.697-129.111h51.873l-66.041,113.344l75.41,198.581h-52.787l-52.559-147.164
		l-25.594,43.646V357.26h-48.445V45.335H1582.69z"/>
	<path fill="#E65A25" d="M1781.271,307.443v49.816h-45.246v-49.816H1781.271z"/>
</g>
<g>
</g>
<g>
</g>
<g>
</g>
<g>
</g>
<g>
</g>
<g>
</g>
<g>
</g>
<g>
</g>
<g>
</g>
<g>
</g>
<g>
</g>
<g>
</g>
<g>
</g>
<g>
</g>
<g>
</g>
</svg>
