<svg width="56" height="56" viewBox="0 0 56 56" fill="none" xmlns="http://www.w3.org/2000/svg">
<path d="M51.0814 33.5891L40.3547 22.8628C39.094 21.602 37.6195 20.6513 35.9675 20.0318C35.348 18.3799 34.3973 16.9053 33.1367 15.6445L22.4102 4.91798C20.074 2.58186 16.9679 1.29529 13.6642 1.29529C10.3604 1.29529 7.25417 2.58186 4.91794 4.91798C2.58149 7.2541 1.29492 10.3603 1.29492 13.6641C1.29492 16.9678 2.58149 20.0742 4.91772 22.4102L15.6443 33.1367C16.905 34.3974 18.3796 35.3479 20.0316 35.9675C20.6511 37.6195 21.6018 39.0941 22.8625 40.3549L33.5891 51.0814C35.9252 53.4175 39.0314 54.7041 42.3352 54.7041C45.6389 54.7041 48.7452 53.4175 51.0813 51.0813C55.904 46.2588 55.904 38.4117 51.0814 33.5891ZM16.8363 31.9452L6.10935 21.2188C4.0914 19.2009 2.98016 16.518 2.98016 13.6642C2.98016 10.8105 4.09151 8.12756 6.10935 6.10961C8.1272 4.09166 10.8103 2.98042 13.664 2.98042C16.5178 2.98042 19.2007 4.09177 21.2186 6.10961L31.9452 16.836C32.7249 17.6159 33.3676 18.4901 33.866 19.447C33.809 19.4364 33.7516 19.4276 33.6946 19.4178C33.6563 19.4113 33.6182 19.4045 33.5798 19.3982C33.4307 19.3742 33.2812 19.3524 33.1311 19.3338C33.117 19.3321 33.1027 19.3308 33.0885 19.3291C32.9509 19.3126 32.8129 19.2988 32.6746 19.2869C32.6372 19.2837 32.5999 19.2808 32.5624 19.2778C32.4279 19.2675 32.2932 19.259 32.1582 19.2532C32.1395 19.2524 32.1209 19.251 32.1023 19.2503C31.9494 19.2442 31.7961 19.2413 31.6426 19.241C31.6312 19.241 31.6199 19.2403 31.6084 19.2403C31.5883 19.2403 31.5679 19.2415 31.5478 19.2416C31.4011 19.2424 31.2543 19.2457 31.1071 19.2516C31.0782 19.2527 31.0494 19.2533 31.0204 19.2547C31.0054 19.2554 30.9907 19.2556 30.9757 19.2563C30.7401 18.944 30.4824 18.6474 30.2058 18.3708L19.6835 7.84833C18.1029 6.26787 16.0015 5.39747 13.7662 5.39747C11.4898 5.39747 9.36061 6.29598 7.77097 7.92741C4.59321 11.1888 4.66376 16.498 7.92814 19.7626L18.3712 30.2056C18.6447 30.4792 18.9389 30.7329 19.2476 30.9663L19.2458 30.9862L19.6641 31.264C19.7475 31.3195 19.8319 31.3733 19.9171 31.4256C20.508 31.7881 21.1391 32.0733 21.7962 32.2776C21.802 32.2793 21.8079 32.2815 21.8137 32.2833C21.8914 32.3072 21.9697 32.3293 22.048 32.3509C22.0654 32.3557 22.0826 32.3613 22.1001 32.366C22.1725 32.3855 22.2455 32.4032 22.3186 32.4207C22.3422 32.4263 22.3655 32.4329 22.3893 32.4383C22.4567 32.4539 22.5249 32.4677 22.5929 32.4816C22.6224 32.4876 22.6516 32.4946 22.6813 32.5004C22.739 32.5117 22.7972 32.521 22.8553 32.5309C22.8957 32.5379 22.9357 32.5458 22.9762 32.5521C23.0226 32.5595 23.0697 32.5651 23.1164 32.5717C23.1687 32.579 23.2208 32.5872 23.2733 32.5935C23.3105 32.5979 23.3479 32.601 23.3852 32.6051C23.4476 32.6118 23.5098 32.619 23.5724 32.6243C23.602 32.6268 23.6318 32.6281 23.6614 32.6302C23.7319 32.6355 23.8024 32.6409 23.8731 32.6443C23.8941 32.6453 23.9152 32.6454 23.9362 32.6463C24.0148 32.6496 24.0933 32.6527 24.1721 32.6537L24.1779 32.6538L25.0408 32.6501L25.0405 32.622C26.9935 32.4513 28.8047 31.6064 30.2059 30.2052C31.597 28.8139 32.4357 27.0246 32.6177 25.0906C32.6341 25.0929 32.6504 25.0951 32.6667 25.0975C32.7365 25.1075 32.8061 25.1186 32.8753 25.1308C32.901 25.1352 32.9268 25.1395 32.9526 25.1442C33.0461 25.1617 33.1391 25.1807 33.2315 25.2021C33.2345 25.2027 33.2373 25.2035 33.2403 25.2044C33.329 25.225 33.4172 25.2481 33.505 25.2723C33.5312 25.2796 33.5575 25.2874 33.5837 25.2949C33.6507 25.3144 33.7176 25.335 33.784 25.3565C33.8102 25.365 33.8366 25.3735 33.8626 25.3822C33.9447 25.4101 34.0263 25.4392 34.1074 25.4703C34.1144 25.473 34.1214 25.4753 34.1284 25.478C34.2164 25.512 34.3036 25.5485 34.3901 25.5863C34.4135 25.5965 34.4367 25.6074 34.46 25.6179C34.5244 25.647 34.5884 25.677 34.652 25.7081C34.6774 25.7206 34.7029 25.7332 34.7282 25.746C34.7982 25.7814 34.8676 25.8181 34.9364 25.8561C34.9479 25.8624 34.9595 25.8684 34.9708 25.8747C34.65 28.1636 33.5872 30.3026 31.9453 31.9447C30.1809 33.7091 27.8427 34.8047 25.3611 35.0294C25.0403 35.0585 24.714 35.0734 24.3916 35.0734C24.1867 35.0734 23.9824 35.0654 23.7787 35.0538C22.8182 34.9993 21.8727 34.8184 20.9605 34.51C19.398 33.9823 18.0104 33.1192 16.8363 31.9452ZM28.9764 19.5251C26.6738 20.0274 24.5429 21.1822 22.8624 22.8627C21.182 24.5432 20.0271 26.674 19.5249 28.9767L9.11944 18.5714C6.50343 15.9554 6.43988 11.7081 8.97758 9.10384C10.2473 7.80064 11.9479 7.08304 13.766 7.08304C15.5512 7.08304 17.2294 7.77822 18.4917 9.04051L28.9764 19.5251ZM25.0765 30.9216C25.2494 29.4348 25.9093 28.0608 26.9848 26.9853C28.0587 25.9115 29.4351 25.2503 30.9226 25.0769C30.7498 26.5641 30.0899 27.9388 29.0142 29.0145C27.9402 30.0884 26.5653 30.7471 25.0765 30.9216ZM36.4742 27.0227L46.8797 37.4282C49.4957 40.0441 49.5593 44.2913 47.0215 46.8957C45.7518 48.1989 44.0512 48.9165 42.2331 48.9165C40.4479 48.9165 38.7696 48.2213 37.5073 46.9589L27.0226 36.4743C29.3252 35.972 31.456 34.817 33.1366 33.1366C34.8171 31.4562 35.972 29.3255 36.4742 27.0227ZM49.8897 49.89C47.8718 51.908 45.1889 53.0192 42.3352 53.0192C39.4815 53.0192 36.7984 51.9078 34.7805 49.89L24.0539 39.1635C23.2741 38.3837 22.6314 37.5096 22.133 36.5526C22.1898 36.5631 22.2467 36.572 22.3036 36.5816C22.3428 36.5882 22.3819 36.5952 22.4212 36.6016C22.5682 36.6252 22.7156 36.6467 22.8635 36.6649C22.8859 36.6678 22.9085 36.6696 22.9309 36.6724C23.0582 36.6875 23.1858 36.7004 23.3136 36.7113C23.3589 36.7152 23.4041 36.7188 23.4494 36.7223C23.5702 36.7314 23.691 36.7389 23.8121 36.7444C23.8434 36.7459 23.8746 36.748 23.906 36.7492C24.0528 36.7549 24.2001 36.7577 24.3475 36.7582C24.3622 36.7582 24.3766 36.7591 24.391 36.7591C24.3911 36.7591 24.3911 36.7591 24.3912 36.7591C24.4772 36.7591 24.5635 36.758 24.6498 36.7561C24.6531 36.7561 24.6564 36.7561 24.6594 36.756C24.7706 36.7536 24.8817 36.7494 24.9928 36.7441C25.0029 36.7437 25.013 36.7436 25.0232 36.743C25.2587 37.0553 25.5164 37.3518 25.793 37.6285L36.3153 48.1508C37.8959 49.7313 39.9974 50.6018 42.2327 50.6018C44.5091 50.6018 46.6383 49.7033 48.2279 48.0719C51.4058 44.8104 51.3352 39.5013 48.0707 36.2367L37.6277 25.7936C37.3542 25.52 37.0599 25.2664 36.7513 25.033L36.753 25.0133L36.3349 24.7354C36.2516 24.68 36.1672 24.6262 36.0821 24.5739C36.0517 24.5553 36.0206 24.5378 35.9899 24.5196C35.935 24.4868 35.8802 24.4536 35.8246 24.4222C35.7799 24.3971 35.7345 24.3734 35.6895 24.3491C35.647 24.3261 35.605 24.3024 35.5623 24.2802C35.5084 24.2522 35.4538 24.226 35.3993 24.1992C35.3648 24.1823 35.3304 24.1643 35.2956 24.1478C35.238 24.1205 35.1797 24.095 35.1215 24.069C35.0891 24.0546 35.0571 24.0392 35.0246 24.0251C34.9643 23.9992 34.9034 23.975 34.8426 23.9505C34.8114 23.938 34.7808 23.9246 34.7496 23.9124C34.6893 23.8889 34.6284 23.8674 34.5676 23.8453C34.5353 23.8336 34.5031 23.8209 34.4707 23.8095C34.4101 23.7884 34.349 23.769 34.288 23.7495C34.2547 23.7388 34.2218 23.7272 34.1884 23.7168C34.1281 23.6982 34.0671 23.6812 34.0063 23.664C33.9718 23.6542 33.9373 23.6435 33.9026 23.6342C33.8455 23.6188 33.7879 23.6051 33.7306 23.591C33.6915 23.5814 33.6527 23.5708 33.6136 23.5617C33.5595 23.5491 33.5051 23.5383 33.4508 23.5269C33.4078 23.5178 33.365 23.5079 33.3219 23.4994C33.2709 23.4896 33.2195 23.4813 33.1683 23.4722C33.1214 23.464 33.0745 23.4549 33.0273 23.4475C32.9808 23.4402 32.9338 23.4344 32.8872 23.4278C32.8349 23.4204 32.7828 23.4124 32.7303 23.406C32.6889 23.401 32.6472 23.3975 32.6058 23.393C32.5476 23.3869 32.4895 23.3801 32.4311 23.3751C32.3947 23.3719 32.3581 23.3703 32.3216 23.3675C32.258 23.3629 32.1942 23.3579 32.1302 23.3547C32.0981 23.3532 32.0657 23.3529 32.0335 23.3516C31.9684 23.3491 31.9033 23.3462 31.8379 23.3451L31.8252 23.345C31.825 23.345 31.8247 23.345 31.8245 23.345C31.8242 23.345 31.8238 23.345 31.8234 23.345C31.7859 23.3445 31.7483 23.3442 31.7107 23.3442C29.4746 23.3442 27.3732 24.2141 25.7937 25.7936C24.4002 27.1871 23.5613 28.9796 23.3811 30.9079C23.3644 30.9056 23.3478 30.9034 23.3312 30.9009C23.2624 30.8911 23.194 30.8801 23.1257 30.8681C23.099 30.8634 23.0721 30.859 23.0454 30.8541C22.9528 30.8367 22.8604 30.8179 22.7688 30.7967C22.7628 30.7954 22.7568 30.7935 22.7507 30.7922C22.6652 30.7721 22.5802 30.7501 22.4956 30.7267C22.468 30.719 22.4408 30.7109 22.4133 30.7029C22.3476 30.6838 22.2823 30.6638 22.2173 30.6426C22.19 30.6337 22.1627 30.6251 22.1355 30.6158C22.0551 30.5884 21.975 30.5599 21.8957 30.5295C21.8872 30.5262 21.8787 30.5235 21.8703 30.5202C21.7828 30.4863 21.696 30.4501 21.6099 30.4124C21.5858 30.4019 21.5618 30.3908 21.538 30.38C21.4745 30.3513 21.4112 30.3217 21.3486 30.291C21.3224 30.2782 21.2962 30.2653 21.2701 30.2522C21.2012 30.2174 21.1331 30.1812 21.0654 30.1439C21.0531 30.1371 21.0407 30.1308 21.0285 30.1239C21.3493 27.835 22.4121 25.696 24.054 24.0541C25.8185 22.2897 28.1567 21.1941 30.6384 20.9693C30.9594 20.9401 31.2858 20.9253 31.6082 20.9253C31.901 20.9253 32.1926 20.9371 32.4827 20.9608C32.639 20.9734 32.7947 20.9902 32.9501 21.0098C33.6598 21.099 34.3587 21.2586 35.039 21.4886C36.6018 22.0167 37.9894 22.8798 39.1634 24.054L49.89 34.7805C54.0554 38.9464 54.0553 45.7244 49.8897 49.89Z" fill="#CB1C3E"/>
<path d="M47.3192 7.48813L40.9688 13.8386L42.1602 15.0301L48.5107 8.67961L47.3192 7.48813Z" fill="#CB1C3E"/>
<path d="M32.9799 0H31.2949V8.98115H32.9799V0Z" fill="#CB1C3E"/>
<path d="M56.0007 23.0201H47.0195V24.7052H56.0007V23.0201Z" fill="#CB1C3E"/>
<path d="M13.8368 40.9666L7.48633 47.3171L8.6778 48.5086L15.0283 42.1581L13.8368 40.9666Z" fill="#CB1C3E"/>
<path d="M8.98115 31.295H0V32.9801H8.98115V31.295Z" fill="#CB1C3E"/>
<path d="M24.7046 47.0188H23.0195V55.9999H24.7046V47.0188Z" fill="#CB1C3E"/>
</svg>
