<svg width="55" height="55" viewBox="0 0 55 55" fill="none" xmlns="http://www.w3.org/2000/svg">
<g clip-path="url(#clip0)">
<path d="M38.2584 44.0001H30.0084V36.6668C30.0084 34.1355 27.9563 32.0834 25.4251 32.0834H19.9251V27.0509L32.3734 18.1593C32.5751 18.0165 32.7106 17.7983 32.7493 17.5543C32.7858 17.311 32.723 17.0633 32.5751 16.8668L29.8251 13.2001C29.5288 12.8062 28.974 12.717 28.5693 12.9984L19.1734 19.4976C20.8349 16.3674 19.6441 12.4829 16.5139 10.8216C13.3838 9.16012 9.49927 10.3509 7.83792 13.4811C6.502 15.9979 6.98588 19.0941 9.02592 21.0834H8.00842C7.74981 21.084 7.50334 21.1939 7.33009 21.3859L1.40842 27.9676C-0.217399 29.7841 -0.136847 32.5553 1.59176 34.2743L6.44092 39.1509C6.63147 39.3417 6.89639 39.439 7.16509 39.4168C7.43722 39.3958 7.68587 39.2547 7.84342 39.0318L8.92509 37.5009V54.0834C8.92509 54.5896 9.33553 55.0001 9.84176 55.0001H15.3418C15.848 55.0001 16.2584 54.5896 16.2584 54.0834V39.4168H22.6751V44.0001H19.9251C19.4189 44.0001 19.0084 44.4105 19.0084 44.9168V54.0834C19.0084 54.5896 19.4189 55.0001 19.9251 55.0001H38.2584C38.7646 55.0001 39.1751 54.5896 39.1751 54.0834V44.9168C39.1751 44.4105 38.7648 44.0001 38.2584 44.0001ZM8.92509 16.5001C8.92509 13.9688 10.9772 11.9168 13.5084 11.9168C16.0397 11.9168 18.0918 13.9688 18.0918 16.5001C18.0918 19.0314 16.0397 21.0834 13.5084 21.0834C10.9772 21.0834 8.92509 19.0314 8.92509 16.5001ZM15.6901 22.9168L14.4251 25.4468L13.1601 22.9168H15.6901ZM8.92509 32.7343L7.45842 31.1668L8.92509 29.7001V32.7343ZM15.3418 37.5834C14.8355 37.5834 14.4251 37.9939 14.4251 38.5001V53.1667H10.7584V27.5001C10.7566 27.13 10.5323 26.7974 10.1901 26.6568C9.84875 26.5132 9.45458 26.5892 9.19092 26.8493L5.52426 30.5159C5.17489 30.8724 5.17489 31.4428 5.52426 31.7993L8.52176 34.9251L6.97259 37.0884L2.86592 33.0001C1.81875 31.9638 1.77429 30.2863 2.76509 29.1959L8.42092 22.9168H11.1068L13.6093 27.9126C13.8401 28.3631 14.3924 28.5413 14.8431 28.3104C15.0142 28.2228 15.1534 28.0837 15.2409 27.9126L17.8901 22.6234L28.8901 15.0059L30.5493 17.2151L18.4768 25.8409C18.2364 26.012 18.0931 26.2884 18.0918 26.5834V33.0001C18.0918 33.5063 18.5022 33.9168 19.0084 33.9168H25.4251C26.9439 33.9168 28.1751 35.148 28.1751 36.6668V44.0001H24.5084V38.5001C24.5084 37.9939 24.098 37.5834 23.5918 37.5834H15.3418ZM37.3418 53.1667H20.8418V45.8334H37.3418V53.1667Z" fill="#CB1C3E"/>
<path d="M53.8431 7.33333C50.2993 7.33333 47.4264 4.4605 47.4264 0.916667C47.4264 0.410437 47.016 0 46.5098 0C46.0035 0 45.5931 0.410437 45.5931 0.916667C45.5931 4.4605 42.7203 7.33333 39.1764 7.33333C38.6702 7.33333 38.2598 7.74377 38.2598 8.25C38.2598 8.75623 38.6702 9.16667 39.1764 9.16667C42.7203 9.16667 45.5931 12.0395 45.5931 15.5833C45.5931 16.0896 46.0035 16.5 46.5098 16.5C47.016 16.5 47.4264 16.0896 47.4264 15.5833C47.4264 12.0395 50.2993 9.16667 53.8431 9.16667C54.3493 9.16667 54.7598 8.75623 54.7598 8.25C54.7598 7.74377 54.3494 7.33333 53.8431 7.33333ZM46.5098 11.8067C45.7195 10.2827 44.4772 9.0404 42.9531 8.25C44.4771 7.4596 45.7194 6.21729 46.5098 4.69333C47.3002 6.21729 48.5425 7.4596 50.0664 8.25C48.5425 9.0404 47.3002 10.2827 46.5098 11.8067Z" fill="#CB1C3E"/>
<path d="M31.0473 23.0922L28.5488 24.9242L29.6329 26.4026L32.1314 24.5706L31.0473 23.0922Z" fill="#CA1C3F"/>
<path d="M42.3025 14.8427L33.1387 21.5673L34.2233 23.0453L43.3871 16.3208L42.3025 14.8427Z" fill="#CA1C3F"/>
<path d="M38.6629 10.2351L33.1641 13.9012L34.181 15.4266L39.6798 11.7605L38.6629 10.2351Z" fill="#CA1C3F"/>
</g>
<defs>
<clipPath id="clip0">
<rect width="55" height="55" fill="white"/>
</clipPath>
</defs>
</svg>
