<svg width="61" height="60" viewBox="0 0 61 60" fill="none" xmlns="http://www.w3.org/2000/svg">
<path d="M28.6894 22.3473V11.8484C31.1458 11.2173 32.9665 8.98398 32.9665 6.3333C32.9665 3.19388 30.4125 0.639893 27.2731 0.639893C24.1339 0.639893 21.5799 3.19388 21.5799 6.3333C21.5799 8.98398 23.4006 11.2171 25.8567 11.8482V22.3471C22.8776 22.7954 20.3482 24.635 18.9532 27.1811L12.7231 22.3378C12.8755 21.909 12.9591 21.4476 12.9591 20.9672C12.9591 18.7029 11.1169 16.8607 8.85261 16.8607C6.58831 16.8607 4.74609 18.7029 4.74609 20.9672C4.74609 23.2315 6.58831 25.0737 8.85261 25.0737C9.60271 25.0737 10.3058 24.8705 10.9116 24.5179L17.9538 29.9924C17.8499 30.5535 17.7929 31.1306 17.7929 31.7213C17.7929 33.8251 18.4826 35.7703 19.6464 37.3447L11.684 45.3071C11.1309 45.8603 11.1309 46.7571 11.684 47.31C11.9607 47.5865 12.3233 47.7249 12.6857 47.7249C13.0481 47.7249 13.4107 47.5867 13.6873 47.31L21.6497 39.3476C22.8638 40.2452 24.2985 40.8607 25.8567 41.0952V51.6175C24.2881 52.1958 23.1666 53.7054 23.1666 55.4721C23.1666 57.7364 25.0088 59.5786 27.2731 59.5786C29.5374 59.5786 31.3796 57.7364 31.3796 55.4721C31.3796 53.7052 30.258 52.1956 28.6894 51.6175V41.0954C33.2475 40.4097 36.7533 36.4675 36.7533 31.7215C36.7533 26.9752 33.2473 23.033 28.6894 22.3473ZM8.85261 22.2411C8.15009 22.2411 7.57882 21.6697 7.57882 20.9674C7.57882 20.265 8.15009 19.6936 8.85261 19.6936C9.55512 19.6936 10.1264 20.265 10.1264 20.9674C10.1264 21.6697 9.55493 22.2411 8.85261 22.2411ZM24.4124 6.3333C24.4124 4.75585 25.6956 3.47262 27.2729 3.47262C28.8502 3.47262 30.1336 4.75585 30.1336 6.3333C30.1336 7.91075 28.8502 9.19398 27.2729 9.19398C25.6956 9.19398 24.4124 7.91075 24.4124 6.3333ZM27.2731 56.7459C26.5706 56.7459 25.9993 56.1744 25.9993 55.4721C25.9993 54.8574 26.4369 54.343 27.017 54.2242C27.1001 54.2395 27.1855 54.2485 27.2731 54.2485C27.3607 54.2485 27.4461 54.2395 27.5292 54.2242C28.1093 54.343 28.5469 54.8574 28.5469 55.4721C28.5469 56.1744 27.9754 56.7459 27.2731 56.7459ZM27.2731 38.3686C23.6077 38.3686 20.6258 35.3865 20.6258 31.7212C20.6258 31.0744 20.7204 30.4495 20.8934 29.8578C20.9027 29.8285 20.9113 29.7994 20.9185 29.7698C21.7542 27.0538 24.2864 25.0737 27.2731 25.0737C30.9384 25.0737 33.9206 28.0558 33.9206 31.7212C33.9206 35.3867 30.9384 38.3686 27.2731 38.3686Z" fill="#CB1C3E"/>
<path d="M55.3074 17.9636C52.1679 17.9636 49.6139 20.5176 49.6139 23.657C49.6139 23.8034 49.6213 23.9479 49.6323 24.0914L39.3895 27.5838C38.649 27.8361 38.2534 28.6411 38.5059 29.3814C38.7066 29.9704 39.2569 30.3411 39.8463 30.3411C39.998 30.3411 40.1521 30.3166 40.3035 30.265L50.5459 26.7728C51.5642 28.3237 53.3176 29.3506 55.3075 29.3506C58.4468 29.3506 61.0008 26.7966 61.0008 23.6572C61.0006 20.5178 58.4466 17.9636 55.3074 17.9636ZM55.3074 26.5179C53.7299 26.5179 52.4467 25.2347 52.4467 23.6572C52.4467 22.0798 53.7301 20.7965 55.3074 20.7965C56.8846 20.7965 58.1678 22.0798 58.1678 23.6572C58.1678 25.2345 56.8846 26.5179 55.3074 26.5179Z" fill="#CB1C3E"/>
<path d="M6.16216 47.1387C3.02274 47.1387 0.46875 49.6929 0.46875 52.8321C0.46875 55.9715 3.02274 58.5255 6.16216 58.5255C9.30139 58.5255 11.8554 55.9715 11.8554 52.8321C11.8556 49.6929 9.30139 47.1387 6.16216 47.1387ZM6.16216 55.6929C4.58471 55.6929 3.30148 54.4097 3.30148 52.8323C3.30148 51.2548 4.58489 49.9716 6.16216 49.9716C7.73942 49.9716 9.02265 51.2548 9.02265 52.8323C9.02284 54.4095 7.73961 55.6929 6.16216 55.6929Z" fill="#CB1C3E"/>
</svg>
