<svg width="50" height="50" viewBox="0 0 50 50" fill="none" xmlns="http://www.w3.org/2000/svg">
<g clip-path="url(#clip0)">
<path d="M49.1671 2.18173e-08C49.167 2.18173e-08 49.1668 2.18173e-08 49.1667 2.18173e-08H0.833333C0.373229 -0.000104145 0.000104167 0.372812 0 0.832917C0 0.833021 0 0.833229 0 0.833333V17.5H1.66667V1.66667H48.3333V20H19.1667V21.6667H49.1667C49.6268 21.6668 49.9999 21.2939 50 20.8337C50 20.8336 50 20.8334 50 20.8333V0.833333C50.0001 0.373229 49.6272 0.000104188 49.1671 2.18173e-08Z" fill="#CB1C3E"/>
<path d="M44.1667 4.16675H27.5V5.83341H44.1667V4.16675Z" fill="#CB1C3E"/>
<path d="M46.6667 9.16675H30V10.8334H46.6667V9.16675Z" fill="#CB1C3E"/>
<path d="M43.3327 14.1665H26.666V15.8332H43.3327V14.1665Z" fill="#CB1C3E"/>
<path d="M26.6002 7.18471C26.0297 5.81336 24.4555 5.16419 23.0843 5.73471C23.0608 5.7445 23.0375 5.7545 23.0144 5.76492L16.2573 9.27013C16.5238 8.71784 16.6636 8.11304 16.6667 7.49992C16.6667 5.19877 14.8011 3.33325 12.5 3.33325C10.1989 3.33325 8.33333 5.19877 8.33333 7.49992C8.33646 8.4044 8.63677 9.28284 9.18802 9.99992H9.15333C6.78792 10.0158 4.67635 11.4863 3.84125 13.6995L1.61667 21.3671C1.08708 22.7427 1.77292 24.2873 3.14865 24.8169C3.77594 25.0584 4.47125 25.0543 5.09573 24.8054C5.81323 24.5164 6.37156 23.9326 6.62854 23.203L7.5 20.4296V32.4903C6.78292 31.9392 5.90448 31.6389 5 31.6356C2.70229 31.6322 0.836771 33.4921 0.833333 35.7899C0.831667 36.9152 1.28583 37.9932 2.0924 38.7779C0.812396 39.4319 0.00500002 40.7461 2.18173e-08 42.1834V49.1666C-0.000104145 49.6267 0.372813 49.9998 0.832917 49.9999C0.833021 49.9999 0.833229 49.9999 0.833333 49.9999H9.16667C9.62677 50 9.9999 49.6271 10 49.167C10 49.1669 10 49.1667 10 49.1666V42.1834C9.99594 41.0022 9.44719 39.8891 8.51292 39.1666H14.8205C13.8861 39.8891 13.3374 41.0022 13.3334 42.1834V49.1666C13.3333 49.6267 13.7063 49.9998 14.1664 49.9999C14.1665 49.9999 14.1667 49.9999 14.1668 49.9999H22.5001C22.9602 50 23.3333 49.6271 23.3334 49.167C23.3334 49.1669 23.3334 49.1667 23.3334 49.1666V42.1834C23.3284 40.7461 22.521 39.4319 21.241 38.7779C22.8864 37.172 22.9183 34.5363 21.3124 32.891C20.3234 31.8777 18.8873 31.4366 17.5001 31.7199V14.6727L25.1502 10.7005C26.5215 10.1301 27.1706 8.55596 26.6002 7.18471ZM12.5 4.99992C13.8807 4.99992 15 6.11919 15 7.49992C15 8.88065 13.8807 9.99992 12.5 9.99992C11.1199 9.99846 10.0015 8.88002 10 7.49992C10 6.11919 11.1193 4.99992 12.5 4.99992ZM5 33.3023C6.38073 33.3023 7.5 34.4216 7.5 35.8023C7.5 37.183 6.38073 38.3023 5 38.3023C3.61927 38.3023 2.5 37.183 2.5 35.8023C2.50146 34.4222 3.6199 33.3039 5 33.3023ZM8.33333 48.3333H1.66667V42.1834C1.66833 40.978 2.6451 40.0014 3.85052 39.9999H6.14948C7.35479 40.0014 8.33167 40.978 8.33333 42.1834V48.3333ZM21.6667 42.1834V48.3333H15V42.1834C15.0017 40.978 15.9784 40.0014 17.1839 39.9999H19.4828C20.6882 40.0014 21.665 40.978 21.6667 42.1834ZM18.3333 33.3023C19.7134 33.3038 20.8319 34.4222 20.8333 35.8023C20.8333 37.183 19.7141 38.3023 18.3333 38.3023C16.9526 38.3023 15.8333 37.183 15.8333 35.8023C15.8333 34.4216 16.9526 33.3023 18.3333 33.3023ZM25.0753 8.57492C24.9638 8.86117 24.7347 9.08586 24.4463 9.19179L16.283 13.4268C16.0068 13.5701 15.8333 13.8554 15.8333 14.1666V32.4903C14.2724 33.6445 13.7317 35.7334 14.5367 37.4999H13.3333V23.3333H11.6667V37.4999H8.79667C9.03375 36.976 9.15865 36.4083 9.16354 35.8333H9.16667V14.9999C9.16656 14.5396 8.79333 14.1666 8.33313 14.1667C7.96927 14.1668 7.6475 14.4029 7.53833 14.7501L5.05 22.6684C4.86146 23.1884 4.28698 23.4571 3.76698 23.2685C3.73052 23.2552 3.69479 23.2399 3.66 23.2225C3.17927 22.9741 2.97521 22.3941 3.19458 21.8993L5.41906 14.2317C6.01896 12.6911 7.4999 11.6738 9.15323 11.6666H15.0538C15.1873 11.6668 15.319 11.6346 15.4375 11.573L23.72 7.27377C24.2169 7.06648 24.7896 7.27856 25.0315 7.75961C25.1597 8.01315 25.1756 8.30898 25.0753 8.57492Z" fill="#CB1C3E"/>
<path d="M34.5736 38.7781C36.2219 37.1722 36.2562 34.5342 34.6504 32.886C33.0446 31.2377 30.4065 31.2034 28.7583 32.8092C27.1101 34.415 27.0757 37.0531 28.6815 38.7013C28.7069 38.7272 28.7325 38.7528 28.7584 38.7781C27.4785 39.432 26.671 40.7462 26.666 42.1835V49.1667C26.6659 49.6268 27.0388 49.9999 27.4989 50C27.499 50 27.4992 50 27.4993 50H35.8327C36.2928 50.0001 36.6659 49.6272 36.666 49.1671C36.666 49.167 36.666 49.1668 36.666 49.1667V42.1835C36.661 40.7462 35.8536 39.432 34.5736 38.7781ZM31.666 33.3024C33.0468 33.3024 34.166 34.4217 34.166 35.8024C34.166 37.1832 33.0468 38.3024 31.666 38.3024C30.2853 38.3024 29.166 37.1832 29.166 35.8024C29.1675 34.4223 30.2859 33.304 31.666 33.3024ZM34.9994 48.3334H28.3327V42.1835C28.3344 40.9782 29.3111 40.0015 30.5165 40H32.8155C34.0208 40.0015 34.9977 40.9782 34.9994 42.1835V48.3334Z" fill="#CB1C3E"/>
<path d="M47.9076 38.7781C49.5558 37.1722 49.5902 34.5342 47.9844 32.886C46.3785 31.2377 43.7405 31.2034 42.0923 32.8092C40.4441 34.415 40.4097 37.0531 42.0155 38.7013C42.0408 38.7272 42.0665 38.7528 42.0924 38.7781C40.8125 39.432 40.005 40.7462 40 42.1835V49.1667C39.9999 49.6268 40.3728 49.9999 40.8329 50C40.833 50 40.8332 50 40.8333 50H49.1667C49.6268 50.0001 49.9999 49.6272 50 49.1671C50 49.167 50 49.1668 50 49.1667V42.1835C49.995 40.7462 49.1876 39.432 47.9076 38.7781ZM45 33.3024C46.3807 33.3024 47.5 34.4217 47.5 35.8024C47.5 37.1832 46.3807 38.3024 45 38.3024C43.6193 38.3024 42.5 37.1832 42.5 35.8024C42.5015 34.4223 43.6199 33.304 45 33.3024ZM48.3333 48.3334H41.6667V42.1835C41.6683 40.9782 42.6451 40.0015 43.8505 40H46.1495C47.3548 40.0015 48.3317 40.9782 48.3333 42.1835V48.3334Z" fill="#CB1C3E"/>
</g>
<defs>
<clipPath id="clip0">
<rect width="50" height="50" fill="white"/>
</clipPath>
</defs>
</svg>
