<svg width="54" height="54" viewBox="0 0 54 54" fill="none" xmlns="http://www.w3.org/2000/svg">
<path d="M26.5113 45.6458C26.3151 45.4496 26.043 45.3367 25.7656 45.3367C25.4882 45.3367 25.2161 45.4495 25.02 45.6458C24.8238 45.8419 24.7109 46.114 24.7109 46.3914C24.7109 46.6699 24.8238 46.9408 25.02 47.137C25.2161 47.3342 25.4882 47.446 25.7656 47.446C26.043 47.446 26.3151 47.3342 26.5113 47.137C26.7075 46.9408 26.8203 46.6688 26.8203 46.3914C26.8203 46.114 26.7074 45.8419 26.5113 45.6458Z" fill="#CB1C3E"/>
<path d="M31.5332 35.916V28.1554C31.5332 27.8051 31.3592 27.4775 31.0688 27.2814C30.7785 27.0854 30.4096 27.0463 30.0845 27.1771L11.9109 34.4963H6.05737C2.7174 34.4963 0 37.2137 0 40.5539C0 43.8941 2.7174 46.6115 6.05759 46.6115H6.75463V52.9451C6.75463 53.5275 7.22681 53.9998 7.80931 53.9998H12.115C12.6975 53.9998 13.1696 53.5275 13.1696 52.9451V47.1203L30.085 53.9237C30.2119 53.9747 30.3455 53.9999 30.4784 53.9999C30.686 53.9999 30.8921 53.9386 31.069 53.8191C31.3593 53.6231 31.5332 53.2955 31.5332 52.9452V45.1847C33.6483 44.7035 35.2322 42.809 35.2322 40.5504C35.2322 38.2918 33.6483 36.3973 31.5332 35.916ZM11.0602 51.8904H8.864V46.6114H11.0603V51.8904H11.0602ZM11.0604 44.502H6.05759C3.8805 44.502 2.10937 42.7309 2.10937 40.5539C2.10937 38.3768 3.8805 36.6057 6.05759 36.6057H11.0608L11.0604 44.502ZM29.4239 51.3841H29.4238L13.1702 44.8468V36.2631L24.7113 31.6151V42.0818C24.7113 42.6642 25.1835 43.1365 25.766 43.1365C26.3485 43.1365 26.8207 42.6642 26.8207 42.0818V30.7656L29.4239 29.7171V51.3841ZM31.5332 42.9745V38.1261C32.4678 38.5343 33.1228 39.4671 33.1228 40.5503C33.1228 41.6336 32.4679 42.5664 31.5332 42.9745Z" fill="#CB1C3E"/>
<path d="M45.2937 39.5271H39.3223C38.7398 39.5271 38.2676 39.9994 38.2676 40.5818C38.2676 41.1642 38.7398 41.6365 39.3223 41.6365H45.2937C45.8762 41.6365 46.3484 41.1642 46.3484 40.5818C46.3484 39.9994 45.8762 39.5271 45.2937 39.5271Z" fill="#CB1C3E"/>
<path d="M40.3975 31.7984C39.9856 31.3867 39.3178 31.3867 38.9058 31.7984L36.846 33.8582C36.4341 34.2701 36.4341 34.9379 36.846 35.3499C37.0521 35.5557 37.322 35.6588 37.5919 35.6588C37.8618 35.6588 38.1318 35.5557 38.3377 35.3499L40.3975 33.2901C40.8093 32.8782 40.8093 32.2104 40.3975 31.7984Z" fill="#CB1C3E"/>
<path d="M40.4741 47.7748L38.3455 45.646C37.9336 45.2342 37.2658 45.2342 36.8538 45.646C36.442 46.0578 36.442 46.7257 36.8538 47.1376L38.9826 49.2664C39.1886 49.4723 39.4585 49.5753 39.7284 49.5753C39.9983 49.5753 40.2683 49.4723 40.4741 49.2664C40.886 48.8546 40.886 48.1867 40.4741 47.7748Z" fill="#CB1C3E"/>
<path d="M49.7812 0H30.164C27.8378 0 25.9453 1.89253 25.9453 4.21874V4.64062H8.22656C6.83079 4.64062 5.69531 5.7762 5.69531 7.17186V23.8359C5.69531 25.2316 6.83079 26.3671 8.22656 26.3671H9.31636V29.6015C9.31636 30.0282 9.57339 30.4127 9.96742 30.576C10.0979 30.63 10.2349 30.6562 10.3708 30.6562C10.6453 30.6562 10.9151 30.5491 11.1168 30.3473L15.097 26.3671H36.047C37.4428 26.3671 38.5783 25.2316 38.5783 23.8359V20.6718H49.7812C52.1074 20.6718 53.9999 18.7793 53.9999 16.4531V4.21874C53.9998 1.89253 52.1074 0 49.7812 0ZM36.4689 23.8359C36.4689 24.0686 36.2797 24.2578 36.047 24.2578H14.6601C14.3804 24.2578 14.1121 24.3689 13.9144 24.5667L11.4258 27.0553V25.3125C11.4258 24.7301 10.9537 24.2578 10.3712 24.2578H8.22656C7.99389 24.2578 7.80468 24.0686 7.80468 23.8359V7.17186C7.80468 6.9392 7.99389 6.74999 8.22656 6.74999H25.9453V16.4531C25.9453 18.7793 27.8378 20.6718 30.164 20.6718H36.4689V23.8359ZM51.8905 16.4531C51.8905 17.6162 50.9443 18.5625 49.7812 18.5625H30.164C29.0009 18.5625 28.0546 17.6162 28.0546 16.4531V4.21874C28.0546 3.05563 29.0009 2.10937 30.164 2.10937H49.7812C50.9443 2.10937 51.8905 3.05563 51.8905 4.21874V16.4531Z" fill="#CB1C3E"/>
<path d="M44.2105 9.42249L36.9922 5.255C36.6659 5.06653 36.2638 5.06653 35.9375 5.255C35.6112 5.44337 35.4102 5.79163 35.4102 6.16836V14.5032C35.4102 14.88 35.6112 15.2282 35.9375 15.4166C36.1007 15.5109 36.2827 15.5579 36.4648 15.5579C36.647 15.5579 36.829 15.5109 36.9922 15.4166L44.2105 11.2491C44.5368 11.0607 44.7378 10.7125 44.7378 10.3357C44.7378 9.959 44.5369 9.61085 44.2105 9.42249ZM37.5195 12.6765V7.99518L41.5737 10.3358L37.5195 12.6765Z" fill="#CB1C3E"/>
<path d="M22.625 11.0742H12.0781C11.4956 11.0742 11.0234 11.5465 11.0234 12.1289C11.0234 12.7113 11.4956 13.1836 12.0781 13.1836H22.625C23.2075 13.1836 23.6797 12.7113 23.6797 12.1289C23.6797 11.5465 23.2075 11.0742 22.625 11.0742Z" fill="#CB1C3E"/>
<path d="M23.3707 17.2895C23.1745 17.0932 22.9024 16.9805 22.625 16.9805C22.3476 16.9805 22.0755 17.0932 21.8793 17.2895C21.6832 17.4857 21.5703 17.7578 21.5703 18.0352C21.5703 18.3125 21.6832 18.5846 21.8793 18.7807C22.0755 18.9769 22.3476 19.0898 22.625 19.0898C22.9034 19.0898 23.1745 18.977 23.3707 18.7807C23.5668 18.5846 23.6797 18.3125 23.6797 18.0352C23.6797 17.7578 23.5668 17.4857 23.3707 17.2895Z" fill="#CB1C3E"/>
<path d="M18.6687 16.9805H12.0781C11.4956 16.9805 11.0234 17.4528 11.0234 18.0352C11.0234 18.6176 11.4956 19.0898 12.0781 19.0898H18.6687C19.2513 19.0898 19.7234 18.6176 19.7234 18.0352C19.7234 17.4528 19.2513 16.9805 18.6687 16.9805Z" fill="#CB1C3E"/>
</svg>
