<svg width="315" height="631" viewBox="0 0 315 631" fill="none" xmlns="http://www.w3.org/2000/svg">
<g clip-path="url(#clip0)">
<path d="M194.577 572.957C195.539 574.141 196.391 575.435 197.131 576.804C198.907 580.06 200.424 585.905 196.983 588.568C192.653 591.898 185.844 590.64 181.107 589.086C175.704 587.273 169.524 584.425 164.047 587.606C161.752 588.938 159.902 590.936 158.052 592.822C153.389 597.595 146.839 600.48 140.252 601.035C136.144 601.405 131.962 600.739 127.965 599.851C124.154 599 120.342 598.039 116.752 596.485C111.572 594.302 105.576 591.269 102.431 586.386C101.21 584.536 100.062 581.724 100.062 579.431C100.062 574.178 103.652 569.96 108.056 567.334C113.385 564.078 119.898 564.226 125.745 565.077C129.002 565.558 132.702 566.335 135.996 566.187C138.882 566.002 141.658 565.114 143.952 563.302C147.69 560.342 152.168 558.307 156.905 557.716C162.123 557.087 166.97 558.418 171.929 559.824C180.145 562.266 189.026 566.113 194.577 572.957Z" fill="#D0D6D6"/>
<path d="M71.6461 607.25C73.9035 610.025 75.1247 613.317 74.1625 616.942C73.7184 618.607 71.9791 620.753 70.3138 621.308C67.9454 622.084 64.0227 621.973 61.6913 621.123C57.6576 619.643 53.0318 617.312 48.961 619.902C47.2587 621.012 45.8525 622.639 44.4832 624.156C41.0046 628.04 36.1198 630.408 31.1979 630.889C28.1263 631.185 25.0548 630.63 22.0202 629.927C19.1707 629.224 16.3582 628.447 13.6568 627.19C9.80808 625.377 5.33028 622.898 2.96186 618.94C2.0737 617.423 1.18555 615.13 1.18555 613.28C1.18555 608.989 3.88703 605.548 7.14361 603.366C11.1403 600.702 15.9882 600.813 20.3179 601.516C22.7604 601.886 25.4989 602.552 27.9783 602.404C30.1247 602.256 32.1971 601.516 33.8994 600.073C36.6749 597.669 40.0055 596.004 43.5581 595.523C48.9981 594.783 54.512 596.818 59.4709 598.815C63.3566 600.406 68.5005 603.329 71.6461 607.25Z" fill="#D0D6D6"/>
<path d="M14.142 402.675C14.586 402.638 15.0301 402.638 15.4742 402.564C15.1781 403.674 14.9191 404.895 14.6971 406.338C12.7727 419.766 10.2563 472.112 10.2563 472.63L8.99805 472.593C9.03505 472.075 11.5145 419.655 13.4758 406.19C13.6239 404.895 13.8829 403.748 14.142 402.675Z" fill="#192226"/>
<path d="M46.2212 356.655C53.1414 363.018 57.9523 370.306 59.0995 377.187C55.2138 376.114 43.8898 379.221 42.1135 379.961C40.3742 380.701 22.5 359.319 22.5 359.319L46.2212 356.655Z" fill="#192226"/>
<path d="M45.7457 390.874C45.8568 389.987 46.0048 389.136 46.1898 388.285V388.248C46.7079 385.658 48.9283 383.661 51.7038 383.55C54.9234 383.439 57.6619 385.917 57.7729 389.136C57.8469 390.69 57.8839 392.243 57.8839 393.797C57.9949 401.825 57.2548 409.815 57.2918 417.843C57.2918 421.209 57.0327 425.316 58.8091 428.349C59.1791 428.978 59.6232 429.57 60.0303 430.199C60.9184 431.419 61.6216 432.751 62.2137 434.12C64.4711 439.225 65.8773 444.7 68.3197 449.694C69.0229 451.1 70.9842 453.616 71.9094 454.873C73.0566 456.39 73.2786 457.907 71.7984 459.461C71.0952 460.163 68.2087 460.792 67.3946 459.313C65.9143 456.686 64.249 454.947 63.0278 452.987C61.6216 450.73 60.1043 448.584 58.513 446.476C57.5508 445.218 56.6257 443.96 55.7375 442.666C50.8156 435.637 48.8543 427.091 47.448 418.768C45.8938 409.593 44.4875 400.123 45.7457 390.874Z" fill="#F2B09E"/>
<path d="M65.8006 460.607C65.5415 462.457 65.6525 463.863 66.1336 463.234C66.0596 463.715 65.9486 464.27 65.8376 464.862C65.7266 465.454 65.5785 466.083 65.4675 466.748C65.2085 468.043 64.9124 469.412 64.6904 470.707C64.3203 473.296 68.6501 476.515 69.3162 476.071C70.4634 475.331 73.1649 471.225 73.683 470.115C74.016 469.338 74.2751 468.524 74.4231 467.673C74.7192 466.009 74.3861 460.386 73.2759 457.204C72.0177 454.356 68.095 454.726 67.5769 455.132C66.3557 456.02 65.5045 457.944 65.8006 460.607Z" fill="#F2B09E"/>
<path d="M68.3902 477.625C67.724 478.032 66.8359 478.328 65.7257 477.44C64.5045 476.441 64.2454 472.668 64.5045 469.264C64.2454 469.671 64.0234 470.004 63.8384 470.337C63.4313 471.04 62.7652 471.817 62.1731 472.409C60.8408 471.928 63.3943 467.932 63.7273 467.082C63.9864 466.379 65.0226 464.085 65.2816 463.382C65.5407 462.05 65.7627 461.052 65.8367 460.608C67.0949 459.424 68.8342 458.462 70.3145 460.423C73.9041 465.306 67.169 468.154 68.8342 471.484C69.9074 469.967 72.6459 467.821 74.2742 464.825C74.5333 466.675 73.9412 468.302 73.7561 470.078C73.201 471.151 69.5374 476.848 68.3902 477.625Z" fill="#EAA292"/>
<path d="M13.4388 406.412C13.8459 406.56 14.29 406.634 14.6971 406.523C12.7727 420.173 10.2933 472.112 10.2563 472.63L8.99805 472.593C9.03505 472.038 11.5145 420.247 13.4388 406.412Z" fill="#192226"/>
<path d="M32.6777 571.699C32.6777 574.03 36.2304 575.916 40.5971 575.916C44.9639 575.916 48.5166 574.03 48.5166 571.699C48.5166 569.369 44.9639 567.482 40.5971 567.482C36.2304 567.482 32.6777 569.369 32.6777 571.699Z" fill="#843A19"/>
<path d="M10.8848 580.356C10.8848 582.686 14.4374 584.573 18.8042 584.573C23.1709 584.573 26.7236 582.686 26.7236 580.356C26.7236 578.025 23.1709 576.138 18.8042 576.138C14.4004 576.138 10.8848 578.025 10.8848 580.356Z" fill="#994C21"/>
<path d="M41.1549 601.257L41.821 607.176L40.8959 608.175L36.4551 599.407L41.1549 601.257Z" fill="#611B06"/>
<path d="M34.3091 598.815C33.4949 596.337 36.7515 588.383 42.7096 591.565C49.2227 598.815 54.5887 602.995 54.5887 602.995C62.3601 608.803 68.0221 613.391 61.6939 614.5C55.3658 615.61 48.7046 613.909 46.0402 609.469C44.4489 606.806 41.4883 604.031 38.9349 602.071L40.8592 608.175L39.342 607.287L34.6051 599.296C34.4941 599.222 34.3831 599.037 34.3091 598.815Z" fill="#843A19"/>
<path d="M46.0025 589.53C48.3709 597.927 56.7714 604.549 57.5855 607.398C58.0296 608.952 39.0822 600.221 37.0469 593.673C37.639 590.344 44.4852 584.092 46.0025 589.53Z" fill="#994C21"/>
<path d="M19.3209 609.396L19.987 615.352L19.0249 616.35L14.6211 607.583L19.3209 609.396Z" fill="#883000"/>
<path d="M12.4751 606.991C11.6609 604.512 14.9175 596.559 20.8756 599.74C27.4257 606.991 32.7547 611.171 32.7547 611.171C40.5261 616.979 46.2251 621.567 39.897 622.676C33.5688 623.786 26.9077 622.084 24.2432 617.645C22.6519 614.982 19.6914 612.207 17.1379 610.246L19.0253 616.35L17.508 615.463L12.7711 607.472C12.6601 607.361 12.5491 607.176 12.4751 606.991Z" fill="#994C21"/>
<path d="M24.0552 597.706C26.4236 606.103 34.8241 612.725 35.6383 615.574C36.0823 617.127 17.135 608.397 15.0996 601.886C15.6917 598.557 22.5379 592.268 24.0552 597.706Z" fill="#994C21"/>
<path d="M17.8046 469.634C16.3984 476.292 17.9156 484.801 18.2857 490.128C19.2109 503.409 20.9132 516.726 19.3959 530.007C19.0628 532.93 18.5817 535.852 18.1747 538.738C18.2487 538.516 18.2857 538.294 18.3597 538.072C17.9526 539.404 17.5456 540.772 17.1385 542.104C16.7314 543.436 16.3243 544.768 15.8803 546.099C15.4732 547.431 15.0291 548.763 14.659 550.058C11.1804 561.674 11.8465 574.326 13.2898 586.237C13.4378 587.569 13.6229 588.864 13.8079 590.196C13.9929 591.528 14.215 592.822 14.437 594.117C14.659 595.412 14.9181 596.744 15.1771 598.038C15.4362 599.333 15.7692 600.591 16.1023 601.96C16.6944 604.179 18.9148 605.474 21.1352 604.919C26.5752 603.514 23.7257 598.741 23.7997 588.124C23.8737 578.321 27.3523 566.335 28.4255 556.606L28.8326 553.054C29.2396 549.466 30.0168 546.136 31.349 542.77L31.386 542.696L31.571 541.993L34.1615 532.93C35.9378 526.789 37.6031 520.611 38.9354 514.396C41.3038 503.187 43.4502 491.682 42.0069 480.214C41.3408 474.961 40.3046 468.672 36.974 464.381C34.3095 460.866 28.2034 459.016 23.9847 460.94C20.3951 462.531 18.6187 465.786 17.8046 469.634Z" fill="#253137"/>
<path d="M39.9714 461.717C38.5652 468.376 40.0825 476.885 40.4525 482.212C41.3777 495.492 43.08 508.81 41.5627 522.091C41.2297 525.013 40.7486 527.936 40.3045 530.821C40.3785 530.599 40.4155 530.377 40.4895 530.155C40.0825 531.487 39.6754 532.856 39.2683 534.188C38.8242 535.519 38.4542 536.851 38.0101 538.183C37.603 539.515 37.1589 540.846 36.7889 542.141C33.2733 553.757 33.9764 566.409 35.3826 578.321C35.5307 579.616 35.7157 580.947 35.9007 582.279C36.0858 583.574 36.3078 584.906 36.5298 586.201C36.7519 587.495 37.0109 588.827 37.307 590.122C37.566 591.454 37.8991 592.711 38.2691 594.08C38.8612 596.263 41.0816 597.595 43.302 597.003C48.742 595.597 45.8925 590.825 45.9665 580.208C46.0405 570.404 49.4821 558.455 50.5923 548.726L50.9994 545.138C51.3695 541.549 52.1836 538.22 53.4788 534.853L53.5159 534.779L53.7009 534.077L56.3284 525.013C58.0677 518.872 59.77 512.694 61.1022 506.442C63.4706 495.27 65.617 483.728 64.1737 472.26C63.5076 467.007 62.4714 460.718 59.1408 456.39C56.4394 452.913 50.3703 451.026 46.1515 452.95C42.5619 454.651 40.7856 457.87 39.9714 461.717Z" fill="#192226"/>
<path d="M21.616 449.102C27.685 439.891 59.5107 442.776 59.5477 442.776C60.3248 442.85 62.1382 446.513 62.5082 447.215C63.5814 449.102 64.3586 451.1 65.0247 453.171C66.727 458.499 67.5411 464.085 67.9482 469.671C68.5773 479.067 67.8002 488.278 66.764 497.601C66.764 497.675 66.764 497.712 66.727 497.786C66.5419 498.859 65.5428 500.116 64.0625 501.411C60.5469 504.519 54.4408 507.848 50.7401 509.254C36.1225 514.84 22.6521 512.361 19.7286 503.15C18.9515 500.634 13.5115 461.384 21.616 449.102Z" fill="#FFE0B2"/>
<path d="M12.6228 403.156C11.5866 404.821 13.77 408.446 13.77 408.446L18.9139 401.528L15.2872 400.641C15.3613 400.604 13.77 401.306 12.6228 403.156Z" fill="#843A19"/>
<path d="M23.9077 360.984C24.8699 365.46 24.2407 392.798 15.9883 405.746C26.5352 400.493 36.0458 395.277 36.0458 395.277L38.1182 360.096L23.9077 360.984Z" fill="#192226"/>
<path d="M16.914 398.643C19.7265 394.944 23.3161 391.91 27.0538 389.173C29.4222 387.397 32.0867 385.843 34.8992 384.808C42.6706 381.515 48.2215 382.995 51.3301 383.55C54.9937 384.216 55.6599 392.724 57.6212 397.422C63.9863 404.673 62.284 412.627 55.7339 417.177C54.2906 424.206 53.7725 428.386 55.3638 433.01C58.1763 441.223 62.6541 445.107 62.5061 450.397C62.173 462.568 43.9658 470.226 33.3819 468.561C23.3531 467.007 18.5053 458.536 21.9099 449.25C21.9469 449.213 23.0201 446.735 23.2791 446.291C29.0151 435.896 26.0176 424.317 18.9493 415.697C16.877 413.256 11.326 405.931 16.914 398.643Z" fill="#843A19"/>
<path d="M3.29745 487.169C3.29745 487.169 24.6502 504.482 28.6099 501.781C32.5326 499.044 33.1618 484.32 28.721 479.326C24.2802 474.369 8.44136 465.01 4.81472 465.971C1.18807 466.933 3.29745 487.169 3.29745 487.169Z" fill="#192226"/>
<path d="M4.70312 477.883L16.0271 489.906L28.6094 491.645V489.795L16.1382 488.131L4.70312 475.997V477.883Z" fill="#424242"/>
<path d="M34.3081 386.028C29.1642 388.1 25.7596 392.243 26.6848 395.351C27.61 398.421 32.5318 399.272 37.6757 397.2C42.8197 395.129 46.2613 390.985 45.2991 387.878C44.4109 384.807 39.4521 383.994 34.3081 386.028Z" fill="#F2B09E"/>
<path d="M30.0513 367.717L30.8284 389.284C30.9394 392.354 33.5299 394.759 36.6015 394.648C39.673 394.537 42.0784 391.947 41.9674 388.877C41.9674 388.803 41.9674 388.655 41.9304 388.581L39.969 367.088C39.71 364.35 37.3046 362.316 34.5661 362.574C31.9386 362.833 29.9403 365.09 30.0513 367.717Z" fill="#F2B09E"/>
<path d="M31.5668 379.258C33.3431 379.48 34.8234 382.07 38.6721 382.551C43.853 383.217 46.8505 381.959 48.4788 381.663C51.2543 381.182 53.0676 378.296 52.8086 376.706C52.2535 373.08 51.1433 370.158 49.7 366.828C46.2584 358.986 40.0043 353.215 36.9328 350.551C28.7913 346.408 23.3884 348.628 16.7272 356.1C9.10382 364.609 17.3563 377.372 31.5668 379.258Z" fill="#FFCCBC"/>
<path d="M14.9157 357.173L26.6468 357.58L27.794 363.351C27.794 366.533 28.5341 370.121 28.8302 373.45C27.831 375.67 26.6468 378.629 26.6468 378.629C26.4247 379.221 18.9864 375.448 17.7282 374.264C10.845 367.753 10.697 357.025 14.9157 357.173Z" fill="#253137"/>
<path d="M28.3527 374.782C23.1718 372.23 22.5427 376.632 23.9119 378.334C25.7252 380.627 30.9061 381.552 33.2746 379.259C30.6841 376.891 29.8329 375.522 28.3527 374.782Z" fill="#FFCCBC"/>
<path d="M5.77558 483.728C5.51653 483.654 5.29449 483.543 5.03544 483.432C4.8134 483.321 4.51735 481.583 4.44334 481.287C4.2213 480.547 4.03627 479.844 3.81423 479.104C3.51817 478.105 3.1111 477.143 2.96308 476.108C2.85206 475.146 3.03709 474.11 3.0741 473.148C3.14811 470.004 2.77804 466.896 2.25995 463.789C2.0009 462.235 1.70485 460.718 1.37179 459.165C1.03873 457.611 0.742681 456.057 0.483635 454.503C-0.404523 449.472 0.0765625 444.848 0.631661 439.78C0.927714 437.264 1.66785 434.749 2.29696 432.27C4.07327 425.463 6.10863 418.657 8.88413 412.183C9.21719 411.406 9.55025 410.629 9.92031 409.852C10.6234 408.298 11.4006 406.782 12.2147 405.265C12.6218 404.525 13.0659 403.748 13.5099 403.008C13.732 402.638 13.954 402.268 14.2131 401.861C14.4721 401.455 14.6942 401.122 14.9532 400.789L14.9902 400.752C16.5815 398.606 19.468 397.718 22.0215 398.791C25.019 400.049 26.4252 403.489 25.167 406.486L24.6859 407.596C24.5379 407.928 24.3899 408.298 24.2419 408.668C23.9458 409.408 23.6127 410.111 23.2797 410.851C22.6136 412.294 21.9104 413.736 21.2073 415.216C20.8743 415.956 20.5042 416.659 20.1341 417.399L19.0239 419.581C18.2838 421.024 17.5437 422.467 16.8035 423.91L14.5461 428.201C13.806 429.644 13.0659 431.086 12.3998 432.529C11.7336 433.972 11.0675 435.415 10.5124 436.894C10.2164 437.597 9.95732 438.337 9.77229 439.04C9.55025 439.706 9.40222 440.335 9.25419 440.927C9.25419 441.186 9.21719 441.408 9.21719 441.667C9.18018 444.515 9.95732 447.253 9.92031 450.101C9.88331 452.987 9.51324 455.835 9.21719 458.684C9.06916 460.237 8.95814 461.754 8.88413 463.308C8.81011 464.862 8.84712 466.378 8.92113 467.932C8.99515 469.486 9.18018 471.003 9.51324 472.519C9.66127 473.296 9.88331 474.036 10.1053 474.776C10.3644 475.516 10.6234 476.256 10.9935 476.959C11.5116 477.957 11.6596 479.141 11.3636 480.325C10.8455 482.877 8.29202 484.357 5.77558 483.728Z" fill="#FFCBBB"/>
<path d="M9.92253 475.294C12.365 477.624 12.661 480.103 12.1059 483.358C11.6248 485.985 12.1059 488.538 12.661 489.684C10.5146 490.535 9.7375 486.91 9.36743 484.949C8.73832 487.65 8.88635 492.681 7.70214 495.381C7.4801 495.899 7.33207 496.676 6.85098 496.676C6.40691 496.676 6.25888 490.535 6.62894 488.094C5.77779 492.422 5.8148 497.083 5.03766 497.046C4.59358 497.009 3.29835 495.788 3.07631 495.381C2.04013 493.125 1.92911 489.721 2.22516 486.984C1.70707 488.908 1.92911 492.57 1.44802 492.57C1.04095 492.2 0.559867 489.98 0.52286 489.425C0.41184 488.279 0.337827 487.169 0.52286 486.059C0.892926 483.839 1.337 481.472 2.07714 479.289C2.59523 477.698 3.37237 476.034 4.55658 474.813C5.07467 474.332 7.88717 473.37 9.92253 475.294Z" fill="#FFCCBC"/>
<path d="M12.6191 403.156C13.6553 402.675 14.8025 402.416 15.9867 402.416C20.4645 402.416 24.0912 406.042 24.0912 410.518C24.0912 411.739 23.8321 412.885 23.351 413.921C26.1265 412.664 28.0879 409.815 28.0879 406.56C28.0879 402.083 22.3149 393.205 18.9843 396.164C15.8017 398.976 14.5065 400.604 12.6191 403.156Z" fill="#843A19"/>
<path d="M18.8012 581.503C21.7987 581.503 24.3522 580.504 25.3143 579.098C25.5734 579.505 25.7584 579.912 25.7584 580.356C25.7584 582.39 22.6499 584.018 18.8382 584.018C15.0265 584.018 11.918 582.39 11.918 580.356C11.918 579.912 12.066 579.468 12.362 579.098C13.2502 580.504 15.8037 581.503 18.8012 581.503Z" fill="#994C21"/>
<path d="M26.7236 580.356L25.7244 598.446L35.1611 613.021L37.8626 617.497L28.4629 616.868L20.7655 610.32L13.9563 605.03V601.479L15.1035 600.221L10.8848 580.356L18.8042 583.204L26.7236 580.356Z" fill="#994C21"/>
<path d="M40.5999 572.846C43.5975 572.846 46.1509 571.847 47.1131 570.441C47.3721 570.848 47.5572 571.255 47.5572 571.699C47.5572 573.734 44.4486 575.361 40.5999 575.361C36.7882 575.361 33.6797 573.734 33.6797 571.699C33.6797 571.255 33.8277 570.811 34.1238 570.441C35.0859 571.847 37.6394 572.846 40.5999 572.846Z" fill="#843A19"/>
<path d="M48.5165 571.699L47.5544 589.789L56.9911 604.328L59.6925 608.841L50.2559 608.212L42.5955 601.664L35.7863 596.374V593.304L36.8965 591.528L32.6777 571.699L40.5971 574.548L48.5165 571.699Z" fill="#843A19"/>
<path d="M56.9175 386.324C57.8426 388.84 54.29 394.019 54.29 394.019L48.998 383.143C48.998 383.106 55.2522 381.885 56.9175 386.324Z" fill="#843A19"/>
<path d="M20.2451 396.127C18.0247 396.275 15.0641 400.049 14.9531 400.16C16.2113 396.83 17.9877 395.018 20.134 394.87C20.2451 394.87 20.3191 394.87 20.3931 394.87C23.3536 394.87 26.1291 398.384 27.8684 404.34C31.5321 416.992 27.3503 478.068 27.1653 480.695L25.9071 480.584C25.9441 479.955 30.2738 417.103 26.6842 404.673C25.0929 399.272 22.6505 395.979 20.2451 396.127Z" fill="#192226"/>
<path d="M14.6957 358.801C10.0699 350.477 22.2451 341.895 33.8281 344.928C44.7821 347.777 51.1842 356.655 55.0699 364.387C56.8462 367.901 58.6966 373.524 59.9178 377.446C55.588 370.75 50.111 361.205 41.4145 361.686C37.7878 361.871 31.1267 363.684 26.6119 363.277C23.0592 362.907 16.5091 362.056 14.6957 358.801Z" fill="#192226"/>
<path d="M233.585 568.407C231.365 571.181 230.107 574.474 231.069 578.099C231.513 579.764 233.252 581.909 234.918 582.464C237.286 583.241 241.209 583.13 243.54 582.279C247.574 580.8 252.2 578.469 256.271 581.096C257.973 582.205 259.379 583.833 260.748 585.35C264.227 589.234 269.112 591.602 274.034 592.083C277.105 592.379 280.214 591.824 283.211 591.121C286.061 590.455 288.873 589.641 291.575 588.383C295.423 586.608 299.901 584.092 302.27 580.134C303.158 578.617 304.046 576.323 304.046 574.474C304.046 570.183 301.345 566.742 298.088 564.56C294.091 561.896 289.28 562.007 284.914 562.71C282.471 563.08 279.733 563.746 277.253 563.598C275.107 563.45 273.035 562.71 271.332 561.267C268.557 558.862 265.226 557.198 261.673 556.717C256.234 555.977 250.72 558.012 245.761 560.009C241.875 561.563 236.731 564.485 233.585 568.407Z" fill="#D0D6D6"/>
<path d="M266.854 354.251C266.78 353.807 266.706 353.4 266.632 352.919C266.558 352.438 266.447 352.031 266.373 351.662V351.625C265.744 349.072 263.449 347.148 260.674 347.148C257.454 347.148 254.827 349.775 254.827 352.993V354.177C254.827 354.51 254.827 354.954 254.827 355.324C254.827 356.101 254.864 356.915 254.864 357.692C254.901 359.282 254.975 360.873 255.086 362.464C255.123 363.278 255.16 364.054 255.234 364.868L255.419 367.273C255.53 368.864 255.678 370.491 255.789 372.082L256.196 376.891C256.344 378.482 256.418 380.11 256.492 381.663C256.566 383.254 256.603 384.845 256.529 386.362C256.529 387.138 256.492 387.878 256.418 388.618C256.381 389.321 256.27 389.95 256.159 390.579C256.085 390.801 256.011 391.06 255.9 391.282C255.752 391.578 255.604 391.911 255.456 392.244C255.123 392.872 254.679 393.501 254.309 394.13C253.902 394.759 253.495 395.425 253.162 396.091C252.828 396.757 252.532 397.46 252.273 398.162C251.2 400.974 250.312 403.934 249.387 406.893C248.943 408.373 248.462 409.815 247.907 411.258C247.388 412.701 246.759 414.107 246.093 415.476C245.427 416.844 244.687 418.176 243.799 419.434C243.355 420.063 242.911 420.655 242.393 421.247C243.614 422.097 244.798 422.985 246.13 423.651C246.981 424.058 247.87 424.391 248.795 424.724C249.017 423.947 249.276 423.207 249.535 422.467C250.127 421.025 250.756 419.619 251.496 418.25C251.866 417.584 252.236 416.881 252.643 416.215C253.05 415.55 253.421 414.884 253.865 414.218C254.716 412.886 255.567 411.591 256.455 410.296C257.343 409.002 258.231 407.707 259.046 406.375C259.897 405.043 260.674 403.675 261.377 402.306C261.747 401.603 262.08 400.9 262.376 400.16C262.672 399.42 262.857 398.643 263.079 397.867C263.264 397.09 263.449 396.276 263.671 395.499C263.782 395.092 263.93 394.722 264.041 394.315C264.189 393.908 264.337 393.501 264.485 393.094L264.523 393.02L264.597 392.687C265.078 390.801 265.337 389.062 265.633 387.323L266.003 384.734C266.114 383.883 266.225 383.032 266.336 382.181C266.558 380.48 266.743 378.778 266.928 377.076C267.002 376.225 267.113 375.374 267.15 374.561C267.224 373.71 267.298 372.859 267.335 372.045C267.446 370.343 267.52 368.679 267.52 366.977C267.52 366.126 267.52 365.275 267.52 364.461C267.52 363.647 267.483 362.797 267.446 361.946C267.372 360.281 267.261 358.579 267.076 356.878C267.076 355.953 267.002 355.102 266.854 354.251Z" fill="#F2B09E"/>
<path d="M248.794 426.388C248.387 428.238 247.758 429.496 247.573 428.719C247.462 429.2 247.351 429.755 247.277 430.347C247.203 430.939 247.092 431.567 246.981 432.233C246.796 433.528 246.611 434.934 246.315 436.192C245.797 438.781 240.579 440.261 240.098 439.632C239.284 438.522 238.173 433.75 238.099 432.529C238.062 431.678 238.099 430.828 238.247 429.977C238.58 428.312 240.838 423.133 242.984 420.543C245.168 418.324 248.72 419.988 249.053 420.58C249.867 421.912 250.015 424.058 248.794 426.388Z" fill="#F2B09E"/>
<path d="M240.431 441.482C240.912 442.11 241.652 442.665 242.985 442.258C244.502 441.778 246.056 438.3 246.981 435.045C247.092 435.489 247.166 435.933 247.24 436.266C247.388 437.079 247.758 438.041 248.091 438.781C249.535 438.818 248.498 434.194 248.498 433.232C248.498 432.492 248.313 429.977 248.35 429.2C248.572 427.905 248.721 426.869 248.795 426.425C248.017 424.872 246.722 423.392 244.65 424.687C239.58 428.016 244.946 433.01 242.207 435.563C241.726 433.75 239.913 430.79 239.432 427.461C238.507 429.126 238.544 430.827 238.1 432.566C238.174 433.75 239.617 440.372 240.431 441.482Z" fill="#EAA292"/>
<path d="M266.782 351.588C266.856 351.994 266.967 352.401 267.041 352.882C267.115 353.363 267.189 353.77 267.263 354.214C267.411 355.065 267.485 355.953 267.596 356.804C267.782 358.505 267.893 360.207 267.967 361.872C268.004 362.723 268.041 363.573 268.041 364.387C268.078 365.238 268.078 366.089 268.078 366.903C268.078 368.605 268.041 370.269 267.967 371.971C267.893 373.673 267.782 375.337 267.671 377.039C267.559 378.741 267.411 380.443 267.226 382.144C267.041 383.846 266.819 385.585 266.56 387.323C266.412 388.211 266.301 389.099 266.116 389.987C265.968 390.912 265.746 391.837 265.524 392.798L265.413 393.205L265.376 393.279C265.117 393.945 264.821 394.648 264.599 395.314C264.377 395.906 264.192 396.498 263.97 397.09C263.748 397.682 263.563 398.31 263.341 398.865C263.119 399.42 262.86 400.012 262.601 400.567C261.564 402.787 260.417 404.969 259.233 407.115L255.717 413.589C255.125 414.699 254.533 415.771 253.978 416.844C253.386 417.954 252.794 419.064 252.202 420.174C251.055 422.467 248.279 423.392 245.985 422.245C243.69 421.099 242.765 418.324 243.912 416.03C243.949 415.993 243.986 415.919 243.986 415.882L244.06 415.734C244.615 414.736 245.17 413.7 245.689 412.664C246.207 411.591 246.688 410.518 247.206 409.446C247.465 408.928 247.687 408.373 247.909 407.818L248.612 406.153C249.093 405.043 249.5 403.933 249.944 402.824C250.351 401.714 250.833 400.604 251.24 399.494L252.609 396.165C252.831 395.61 253.053 395.055 253.312 394.537C253.571 393.982 253.867 393.464 254.089 392.946C254.348 392.428 254.607 391.911 254.866 391.393C255.088 390.949 255.236 390.505 255.384 390.024L255.236 390.542C255.31 389.913 255.421 389.21 255.495 388.507C255.569 387.804 255.606 387.027 255.643 386.288C255.717 384.771 255.68 383.217 255.643 381.626C255.606 380.036 255.532 378.445 255.458 376.854C255.384 375.263 255.273 373.673 255.162 372.045L254.866 367.236C254.829 366.422 254.755 365.645 254.718 364.831C254.681 364.017 254.607 363.241 254.57 362.427C254.496 360.836 254.422 359.245 254.385 357.654L254.311 355.287L254.274 354.177V352.993V352.919C254.237 349.479 257.013 346.63 260.454 346.593C263.637 346.63 266.153 348.739 266.782 351.588Z" fill="#00ACC1"/>
<path d="M265.929 557.457C266.484 554.904 262.71 548.171 257.122 551.945C250.942 557.938 249.683 561.119 247.648 564.93C246.205 567.593 238.804 567.963 240.358 572.587C242.097 577.803 252.422 575.251 254.605 570.552C255.753 568.111 258.75 564.892 260.785 563.154C261.822 562.303 265.004 560.416 265.596 559.75C265.781 559.676 265.892 557.716 265.929 557.457Z" fill="#192226"/>
<path d="M266.115 557.05C266.411 555.681 264.228 551.057 262.303 549.318C260.675 547.839 259.565 548.985 257.012 550.724C253.089 552.574 248.685 560.527 244.984 564.967C243.06 567.297 239.026 567.815 240.248 571.367C242.061 576.546 251.831 574.289 254.014 569.591C255.309 566.779 259.491 563.006 261.822 560.786L265.856 557.568C265.967 557.457 266.041 557.272 266.115 557.05Z" fill="#E0E0E0"/>
<path d="M249.797 567.001C249.723 567.001 249.612 567.001 249.575 566.927L245.579 564.634C245.357 564.523 245.246 564.19 245.394 563.968C245.542 563.709 245.838 563.635 246.097 563.783L250.093 566.039C250.352 566.187 250.426 566.483 250.278 566.705C250.13 566.89 249.982 567.001 249.797 567.001Z" fill="#212121"/>
<path d="M251.13 565.077C251.055 565.077 250.944 565.04 250.87 565.003L246.874 562.71C246.615 562.562 246.541 562.266 246.689 562.044C246.8 561.822 247.133 561.711 247.392 561.859L251.389 564.116C251.648 564.264 251.722 564.56 251.574 564.782C251.463 565.003 251.278 565.077 251.13 565.077Z" fill="#212121"/>
<path d="M252.35 563.265C252.276 563.265 252.202 563.228 252.091 563.191L248.094 560.897C247.835 560.786 247.761 560.453 247.909 560.231C248.057 559.972 248.354 559.898 248.576 560.046L252.572 562.34C252.794 562.488 252.905 562.784 252.757 563.006C252.683 563.154 252.535 563.265 252.35 563.265Z" fill="#212121"/>
<path d="M265.674 577.877C265.674 577.877 268.782 575.695 273.371 570.997C276.184 568.111 284.658 561.859 288.877 561.97C291.689 562.044 293.466 562.155 294.28 564.412L295.131 568.148L295.094 568.111C295.02 569.332 294.724 570.738 293.614 571.736C290.727 574.326 277.775 580.837 274.703 582.132C265.822 585.831 265.674 577.877 265.674 577.877Z" fill="#192226"/>
<path d="M288.171 557.346C286.617 557.494 285.322 557.531 283.916 559.233C277.995 566.335 271.74 571.514 269.261 573.66C266.708 575.843 265.745 577.137 265.671 577.84C265.449 580.208 268.521 583.981 274.368 581.096C277.328 579.616 290.577 572.069 293.463 569.48C294.574 568.481 295.425 567.001 295.055 565.558C293.907 561.489 291.613 557.05 288.171 557.346Z" fill="#F0F2F4"/>
<path d="M279.512 571.773C279.401 571.773 279.327 571.773 279.216 571.699L275.368 569.221C275.146 569.073 275.072 568.74 275.22 568.518C275.368 568.296 275.664 568.222 275.923 568.37L279.808 570.849C280.03 570.997 280.104 571.293 279.956 571.552C279.808 571.7 279.66 571.773 279.512 571.773Z" fill="#212121"/>
<path d="M277.958 573.142C277.847 573.142 277.773 573.142 277.699 573.068L273.85 570.59C273.628 570.442 273.554 570.146 273.702 569.887C273.85 569.665 274.183 569.591 274.405 569.739L278.291 572.217C278.513 572.365 278.587 572.661 278.439 572.92C278.254 573.068 278.106 573.142 277.958 573.142Z" fill="#212121"/>
<path d="M276.29 574.696C276.179 574.696 276.105 574.659 275.994 574.622L272.108 572.143C271.886 571.995 271.812 571.699 271.96 571.44C272.108 571.218 272.404 571.144 272.626 571.292L276.512 573.771C276.734 573.919 276.808 574.215 276.66 574.474C276.586 574.622 276.438 574.696 276.29 574.696Z" fill="#212121"/>
<path d="M290.504 428.904C291.91 435.563 290.393 444.071 290.023 449.398C289.097 462.679 287.395 475.997 288.912 489.278C289.245 492.2 289.69 495.086 290.134 498.008C290.06 497.786 290.023 497.564 289.949 497.342C290.356 498.674 290.726 500.043 291.17 501.374C291.577 502.706 291.984 504.038 292.428 505.37C292.835 506.702 293.279 507.996 293.649 509.328C297.165 520.944 296.462 533.633 295.055 545.545C294.907 546.877 294.722 548.171 294.537 549.503C294.352 550.835 294.13 552.13 293.908 553.424C293.686 554.719 293.427 556.051 293.131 557.346C292.835 558.678 292.539 559.898 292.206 561.304C291.614 563.487 289.393 564.819 287.173 564.264C281.733 562.858 284.546 558.049 284.472 547.469C284.398 537.665 280.919 525.716 279.846 515.95L279.439 512.399C279.032 508.81 278.254 505.481 276.959 502.151L276.922 502.077L276.737 501.374L274.147 492.311C272.37 486.17 270.705 479.992 269.373 473.74C267.004 462.531 264.858 451.026 266.301 439.558C266.967 434.305 268.004 428.016 271.334 423.688C273.999 420.21 280.105 418.324 284.324 420.247C287.876 421.801 289.653 425.057 290.504 428.904Z" fill="#253137"/>
<path d="M265.152 436.636C264.115 436.044 263.042 435.452 262.006 434.86C256.899 431.938 252.199 429.015 250.053 427.536C249.979 427.462 249.905 427.425 249.831 427.388C247.203 425.575 246.019 423.984 246.13 422.8C246.685 417.029 248.906 412.035 252.014 408.225C252.384 416.918 258.231 431.383 265.152 436.636Z" fill="#192226"/>
<path d="M262.156 550.391C262.415 548.985 262.415 547.394 262.415 546.174C262.341 539.404 261.305 532.597 259.714 526.012C257.197 515.395 253.238 505.259 247.502 495.973C246.798 494.827 245.984 493.717 245.207 492.644C244.985 492.311 244.726 492.015 244.504 491.719C244.689 491.09 244.874 490.498 245.059 489.869L246.317 485.541C249.352 475.294 252.534 465.084 256.605 455.206C260.01 446.883 265.228 439.04 267.078 430.125C267.892 426.129 267.374 421.616 264.266 418.583C260.158 414.587 253.571 414.698 249.574 418.805C242.654 425.907 239.101 435.748 236.4 445.107C233.735 454.356 231.922 463.863 230.923 473.407C230.59 476.552 230.367 479.733 230.219 482.878C230.145 484.431 230.108 486.022 230.071 487.576C229.997 491.016 229.775 493.939 231.145 497.046C233.106 501.522 235.548 505.851 237.843 510.105C242.506 518.724 246.613 527.603 249.944 536.814C251.498 541.143 252.83 545.545 253.941 550.021C254.015 550.28 254.089 550.613 254.126 550.798L254.348 551.427C254.829 553.017 256.272 554.164 258.011 554.275C260.713 554.423 261.749 552.574 262.156 550.391Z" fill="#192226"/>
<path d="M272.703 402.047C265.523 398.791 257.53 401.788 252.016 408.225C246.761 414.329 262.008 434.86 262.008 434.86C263.044 435.452 264.117 436.044 265.153 436.636C270.963 439.891 276.736 442.814 279.364 443.369C283.213 444.183 286.062 442.666 288.949 440.15C295.129 434.749 294.611 411.998 272.703 402.047Z" fill="#253137"/>
<path d="M283.77 343.338L277.22 348.998L274 345.742L279.958 341.377L283.77 343.338Z" fill="#192226"/>
<path d="M294.5 363.166C291.687 359.504 288.098 356.471 284.36 353.696C281.992 351.957 279.327 350.404 276.515 349.368C268.743 346.075 263.192 347.555 260.084 348.11C256.42 348.776 255.754 357.284 253.793 361.983C247.428 369.233 249.13 377.224 255.68 381.737C257.123 388.766 257.641 392.946 256.05 397.571C253.238 405.783 248.76 409.667 248.908 414.995C249.241 427.165 267.448 434.786 278.032 433.158C288.061 431.605 292.909 423.133 289.504 413.848C289.504 413.811 288.394 411.295 288.135 410.888C282.399 400.493 285.396 388.914 292.465 380.295C294.574 377.816 300.125 370.491 294.5 363.166Z" fill="#4DD0E1"/>
<path d="M280.808 333.239L280.031 354.806C279.92 357.877 277.33 360.281 274.258 360.207C271.187 360.096 268.781 357.507 268.892 354.436C268.892 354.325 268.892 354.214 268.892 354.14L270.854 332.647C271.113 329.909 273.518 327.875 276.294 328.134C278.921 328.356 280.919 330.649 280.808 333.239Z" fill="#F2B09E"/>
<path d="M281.178 343.819C279.475 344.337 278.476 347.185 274.776 348.295C269.78 349.849 266.597 349.146 264.969 349.146C262.156 349.146 259.862 346.63 259.825 345.003C259.751 341.34 260.306 338.27 261.194 334.718C263.23 326.395 268.373 319.625 270.927 316.444C278.217 310.932 283.916 312.189 291.799 318.404C300.754 325.507 294.833 339.528 281.178 343.819Z" fill="#FFCCBC"/>
<path d="M293.724 319.181L282.252 321.623L282.104 327.504C282.659 330.649 282.548 334.274 282.807 337.641C284.176 339.638 285.878 342.376 285.878 342.376C286.211 342.931 292.872 337.937 293.909 336.531C299.571 328.91 297.868 318.293 293.724 319.181Z" fill="#253137"/>
<path d="M296.093 319.514C290.542 301.794 268.856 314.557 266.377 319.329C263.305 325.285 269.152 329.576 269.3 329.724C279.588 337.678 297.203 323.065 296.093 319.514Z" fill="#192226"/>
<path d="M283.58 338.825C288.206 335.384 289.612 339.639 288.539 341.562C287.17 344.115 282.211 345.927 279.473 344.078C281.619 341.34 282.248 339.824 283.58 338.825Z" fill="#FFCCBC"/>
<path d="M296.572 365.719C296.868 366.015 297.127 366.311 297.423 366.718C304.159 375.042 309.303 387.656 313.003 397.571C316.297 406.412 312.707 414.551 308.34 422.948C306.157 427.092 304.048 431.346 302.863 435.933C302.678 436.71 302.493 437.487 302.382 438.264C302.271 439.04 302.16 439.854 302.123 440.705C302.086 443.295 299.94 445.329 297.386 445.292C294.833 445.255 292.761 443.147 292.798 440.557C292.835 439.336 293.316 438.264 294.093 437.413C294.648 436.821 295.129 436.192 295.536 435.563C295.98 434.897 296.35 434.231 296.72 433.565C297.46 432.197 298.053 430.791 298.534 429.311C299.015 427.868 299.459 426.389 299.829 424.872C300.199 423.392 300.495 421.838 300.791 420.322C301.864 414.329 302.863 407.078 304.418 403.49C304.159 397.682 291.65 380.85 288.098 374.487C287.913 374.154 287.728 373.784 287.543 373.488L286.988 372.452C285.433 369.603 286.469 366.015 289.319 364.461C291.798 363.13 294.759 363.721 296.572 365.719Z" fill="#FFCBBB"/>
<path d="M297.24 435.045C293.909 435.748 292.355 437.672 291.097 440.742C290.098 443.221 288.321 445.144 287.285 445.81C288.654 447.697 291.245 445.033 292.614 443.517C291.689 446.143 288.913 450.323 288.469 453.246C288.358 453.838 288.099 454.541 288.506 454.8C288.876 455.022 292.281 449.917 293.243 447.623C291.689 451.729 289.135 455.688 289.839 456.02C290.246 456.242 291.985 455.909 292.392 455.651C294.464 454.282 296.389 451.47 297.573 448.992C297.018 450.878 294.872 453.875 295.279 454.171C295.834 454.06 297.388 452.432 297.721 451.988C298.424 451.063 299.09 450.175 299.497 449.14C300.348 447.031 301.237 444.811 301.755 442.592C302.162 440.964 302.384 439.151 302.014 437.487C301.866 436.784 299.978 434.49 297.24 435.045Z" fill="#FFCCBC"/>
<path d="M297.387 365.571C303.382 371.453 308.045 383.328 309.932 387.545C310.635 389.099 312.744 395.462 313.411 397.053C316.889 405.45 313.966 411.036 310.635 419.471C309.266 422.911 307.823 426.352 306.527 429.829C306.046 431.013 305.602 432.197 305.158 433.38C304.27 435.785 301.605 437.043 299.2 436.155C296.795 435.267 295.536 432.604 296.425 430.199C296.462 430.125 296.462 430.088 296.499 430.014L296.573 429.866C299.792 422.097 300.68 412.146 303.493 404.266C301.235 394.204 295.166 387.804 290.096 379.518C287.395 375.078 281.955 368.05 289.06 364.054C291.762 362.538 295.092 363.315 297.387 365.571Z" fill="#80DEEA"/>
<path d="M115.682 430.199C115.904 436.747 121.011 443.405 127.783 444.293C134.555 445.218 139.329 412.22 139.329 412.22L120.641 401.418L115.682 430.199Z" fill="#8EB758"/>
<path d="M175.298 267.982C177.555 268.648 179.887 269.091 182.255 269.202C182.292 268.759 182.329 268.315 182.366 267.908C182.477 266.983 182.625 266.058 182.81 265.133C182.995 264.208 183.217 263.32 183.476 262.433C183.661 261.767 184.327 259.991 184.808 258.992C184.956 258.659 185.104 258.4 185.215 258.289C185.697 257.328 185.919 256.144 186.104 254.849C186.289 253.554 186.4 252.148 186.585 250.706C186.215 250.003 185.697 249.374 185.03 248.819C184.697 248.523 184.327 248.301 183.957 248.116C183.698 247.968 183.402 247.857 183.106 247.783C182.218 247.487 181.293 247.413 180.368 247.524C179.887 247.561 179.368 247.709 178.924 247.894C178.85 247.931 178.739 247.968 178.665 248.005C178.073 248.264 177.518 248.634 177 249.078C176.778 249.263 176.593 249.485 176.408 249.707C175.224 251.15 175.261 253.517 175.298 255.256C175.335 258.141 175.557 260.916 175.113 263.801C175.039 264.208 174.965 264.578 174.891 264.948C174.928 265.059 174.965 265.096 175.002 265.207C175.187 266.132 175.261 267.057 175.298 267.982Z" fill="#F2B09E"/>
<path d="M163.676 344.115C163.676 344.115 163.824 343.856 164.083 343.412C164.342 342.931 164.712 342.265 165.193 341.377C166.118 339.638 167.303 337.123 168.598 334.015C170.485 329.465 177.813 310.709 179.441 306.64C184.104 294.95 188.655 274.9 188.655 274.9C189.618 271.348 184.992 268.167 181.439 267.205C178.109 266.317 174.667 268.167 173.483 271.348C173.483 271.348 173.113 272.384 172.447 274.234C171.78 276.083 171.262 279.191 170.115 282.372C167.747 289.031 165.822 297.688 164.342 300.499C163.343 302.423 159.42 308.379 158.347 310.265C157.237 312.189 156.201 314.039 155.164 315.888C153.166 319.588 151.538 323.102 150.206 326.173C148.91 329.243 147.911 331.87 147.282 333.719C146.986 334.644 146.764 335.384 146.616 335.902C146.468 336.383 146.394 336.679 146.394 336.679C145.099 341.784 147.652 347.407 152.759 348.702C156.793 349.812 161.493 347.555 163.676 344.115Z" fill="#8EB758"/>
<path d="M185.548 245.231C184.956 244.528 184.327 243.899 183.697 243.27C181.144 244.047 178.739 245.231 176.851 247.265C176.444 248.301 176.111 249.448 175.852 250.632C175.667 251.446 175.482 252.296 175.334 253.11V253.147C175.334 253.85 175.445 256.921 175.815 257.587C177.665 261.212 180.071 261.101 182.587 259.991C182.735 259.917 182.92 259.843 183.068 259.732C183.364 259.547 183.623 259.362 183.845 259.14C184.031 258.955 184.216 258.77 184.401 258.511C185.067 257.661 185.585 256.588 186.029 255.367C186.473 254.146 186.917 252.777 187.435 251.446C187.657 250.854 187.879 250.299 188.175 249.744C188.138 249.596 188.101 249.485 188.064 249.374C187.361 247.894 186.584 246.451 185.548 245.231Z" fill="#F2B09E"/>
<path d="M187.657 248.634C187.065 247.413 186.399 246.23 185.547 245.194C184.992 244.528 184.363 243.899 183.734 243.307C183.179 243.566 182.661 243.825 182.106 244.084C181.921 244.676 181.736 245.231 181.514 245.823C182.143 248.042 182.143 253.295 182.143 253.628C182.143 255.663 185.14 258.437 186.695 256.329C187.176 255.108 188.471 253.036 188.989 251.668C189.211 251.15 187.805 250.373 188.027 249.892C187.953 249.485 187.805 249.078 187.657 248.634Z" fill="#EAA292"/>
<path d="M173.471 264.077L171.799 274.674L186.165 276.939L187.837 266.342L173.471 264.077Z" fill="#8EB758"/>
<path d="M167.117 560.638C167.117 560.638 167.117 560.638 167.117 560.601C167.377 559.861 171.336 548.763 171.373 548.282C171.373 548.282 174.63 548.578 182.401 549.244C182.438 553.535 183.77 557.827 185.547 561.711C187.841 566.557 190.691 570.811 192.8 573.623C194.465 575.879 197.167 577.507 196.871 580.578C196.501 584.018 192.504 585.313 187.064 582.76C185.251 581.909 184.437 581.318 182.401 579.801C179.441 577.618 179.071 576.508 177.072 574.511C175.111 572.513 171.262 569.369 169.597 567.704C167.006 565.077 166.562 562.229 167.117 560.638Z" fill="#D2D2D2"/>
<path d="M167.341 559.307C167.341 559.307 167.378 559.307 167.341 559.307C167.637 558.53 170.708 549.244 171.597 546.951C172.485 544.62 177.74 542.807 182.662 547.913C182.699 552.204 184.031 556.495 185.844 560.379C188.102 565.226 190.988 569.48 193.097 572.328C194.763 574.548 197.464 577.248 197.168 580.319C196.835 583.759 192.801 584.018 187.361 581.466C185.548 580.615 184.845 580.023 182.81 578.506C179.886 576.324 179.59 575.177 177.555 573.179C175.556 571.182 171.56 568.111 169.857 566.446C167.267 563.746 166.823 560.897 167.341 559.307Z" fill="#192226"/>
<path d="M116.936 581.724C124.596 588.309 131.479 589.974 132.368 585.424C132.516 584.499 132.145 582.538 131.479 581.096C131.331 580.763 131.183 580.467 130.998 580.171C130.332 579.172 129.703 578.136 129 577.174C129 577.174 129 577.137 128.963 577.137C126.557 573.66 123.745 570.774 119.6 570.959C112.495 571.292 108.979 556.606 105.353 560.49C105.464 560.379 104.057 563.413 104.354 564.67C105.427 569.184 110.978 576.619 116.936 581.724Z" fill="#EAEAEA"/>
<path d="M105.136 561.082V561.045C105.469 560.305 110.354 549.614 110.428 549.133C110.428 549.133 113.648 549.688 121.345 551.02C121.012 555.274 121.974 559.676 123.417 563.745C125.268 568.777 127.747 573.216 129.634 576.249C129.634 576.286 129.671 576.286 129.671 576.286C130.338 577.248 131.004 578.284 131.633 579.283C131.818 579.542 131.966 579.875 132.114 580.208C132.78 581.687 133.187 583.648 133.002 584.536C132.151 589.086 125.268 587.421 117.607 580.837C110.243 574.511 103.508 564.633 105.136 561.082Z" fill="#192226"/>
<path d="M139.66 424.354C140.03 425.796 140.474 427.202 140.918 428.608L140.659 434.675C142.806 441.26 160.532 487.391 161.346 489.943C161.309 489.758 161.309 489.684 161.309 489.832C161.198 491.904 161.531 493.939 161.346 496.047C159.718 515.173 159.422 538.331 167.304 555.903C168.747 559.158 175.853 556.976 179.109 555.533C181.774 554.349 185.992 551.02 185.622 548.245C185.622 548.245 182.477 545.804 182.477 545.767C180.256 530.747 181.145 518.576 179.701 503.52C179.442 500.93 178.85 487.465 178.739 486.022C178.443 482.767 174.705 450.915 170.783 436.857C168.71 429.422 166.157 422.097 162.382 415.327C159.089 409.371 151.576 407.226 145.618 410.518C140.622 413.256 138.291 419.064 139.66 424.354Z" fill="#192226"/>
<path d="M118.011 433.01C117.974 439.928 120.379 489.314 120.342 492.015C120.379 491.793 120.379 491.756 120.342 491.904C119.602 493.828 119.269 495.862 118.418 497.823C110.869 515.506 103.319 537.369 105.318 556.532C105.688 560.083 113.089 560.231 116.642 559.861C119.565 559.565 124.598 557.716 125.116 554.978L122.896 551.649C125.486 536.703 130.186 525.383 133.517 510.66C134.072 508.144 137.773 495.159 138.106 493.754C138.846 490.572 145.322 459.165 145.951 444.589C146.321 436.857 146.173 429.126 144.73 421.505C143.472 414.809 137.143 411.85 130.334 411.665C117.493 411.295 118.011 433.01 118.011 433.01Z" fill="#253137"/>
<path d="M119.938 418.139L157.018 404.932L158.646 413.107L140.143 431.567L119.938 418.139Z" fill="#253137"/>
<path d="M119.085 384.142C119.862 392.095 118.53 400.715 118.492 412.516C118.122 415.623 119.492 417.547 121.786 418.842C122.859 419.433 124.117 419.914 125.524 420.284C128.41 421.061 131.852 421.505 135.145 422.023C138.18 422.504 141.733 422.245 145.211 421.357C148.949 420.395 152.65 418.731 155.536 416.511C159.237 413.662 161.642 409.963 161.272 405.635C160.458 396.534 169.118 350.662 158.867 334.792C157.312 332.388 147.432 324.73 136.922 328.466C136.071 328.762 135.293 329.058 134.479 329.354C133.48 329.761 132.518 330.131 131.63 330.575C124.043 334.015 119.085 338.233 112.979 344.78L115.384 352.697C117.715 359.726 117.678 369.677 119.085 384.142Z" fill="#192226"/>
<path d="M130.556 332.573C129.334 330.871 128.224 329.058 128.668 328.281C129.556 326.728 131.444 324.323 135.773 323.324L134.737 328.688C133.072 329.576 131.592 330.982 130.556 332.573Z" fill="#8EB758"/>
<path d="M146.436 335.162L146.473 327.763C152.949 328.799 158.056 332.646 159.129 334.311C169.38 350.181 161.682 408.335 164.199 418.324C165.272 422.504 160.831 432.899 157.13 435.748C157.686 420.58 157.13 366.718 155.465 355.989C153.356 342.228 147.324 337.197 146.436 335.162Z" fill="#9CCC65"/>
<path d="M149.133 329.132C151.021 333.497 150.428 339.453 150.428 339.453L147.098 333.793L146.395 335.162C146.395 335.162 144.877 329.058 142.953 328.281C142.953 326.913 144.396 325.618 144.396 325.618L149.133 329.132Z" fill="#8EB758"/>
<path d="M132.848 311.338L132.589 331.352C132.515 334.903 135.365 337.826 138.917 337.863C142.47 337.9 145.394 335.088 145.431 331.5C145.431 331.204 145.431 330.871 145.394 330.575L142.766 310.746C142.396 308.009 139.917 306.085 137.178 306.455C134.699 306.751 132.848 308.897 132.848 311.338Z" fill="#F2B09E"/>
<path d="M132.665 321.252C134.331 322.325 134.553 325.655 138.142 327.985C142.99 331.13 146.617 331.352 148.356 331.832C151.354 332.683 154.573 330.686 155.091 328.984C156.276 325.1 156.609 321.622 156.757 317.59C157.127 308.083 153.685 299.278 151.909 295.135C145.803 287.033 139.327 286.663 129.039 290.918C117.308 295.764 119.38 312.522 132.665 321.252Z" fill="#FFCCBC"/>
<path d="M137.886 306.899C136.665 309.895 136.036 313.558 135.037 316.85C133.223 318.589 131.447 320.439 131.447 320.439C127.191 318.774 125.6 315.925 123.158 311.597C121.122 307.972 119.864 302.275 120.974 299.648L137.886 306.899Z" fill="#563A36"/>
<path d="M153.54 301.942C142.957 310.45 129.523 311.745 121.345 301.461C118.569 291.436 133.52 283.001 144.992 287.403C153.91 290.807 157.093 299.093 153.54 301.942Z" fill="#38201C"/>
<path d="M131.633 314.594C127.636 309.452 124.823 313.632 125.378 316.036C126.082 319.255 130.929 322.732 134.408 321.548C132.928 317.886 132.743 316.073 131.633 314.594Z" fill="#FFCCBC"/>
<path d="M109.684 347.259C114.976 341.599 122.821 334.089 128.853 330.908C129.445 333.016 130.259 336.161 132.036 337.752C134.182 339.638 136.809 342.006 139.77 342.265L141.694 345.002C145.247 354.251 146.542 393.02 145.21 421.394C144.914 427.757 144.47 438.707 143.878 443.59C128.927 438.374 122.599 415.808 122.081 414.328C121.008 418.065 116.456 427.424 115.679 430.383C114.791 424.649 118.047 393.094 117.233 385.14C115.864 370.713 109.684 347.259 109.684 347.259Z" fill="#9CCC65"/>
<path d="M141.697 345.039L136.257 336.642L133.26 338.27L135.628 343.042L141.697 345.039Z" fill="#8EB758"/>
<path d="M125.932 333.46C125.932 333.46 126.598 330.427 129.41 327.134C129.336 332.683 136.256 336.642 136.256 336.642L135.59 347.703C135.59 347.703 129.854 341.414 125.932 333.46Z" fill="#AADB6A"/>
<path d="M113.053 346.63C113.053 346.63 112.979 346.704 112.868 346.815C112.757 346.926 112.572 347.074 112.313 347.333C111.794 347.851 111.091 348.554 110.277 349.478C108.612 351.328 107.095 354.103 104.689 357.617C103.505 359.356 102.284 361.316 101.063 363.425C99.8414 365.534 98.6572 367.827 97.584 370.343C96.5108 372.821 94.8085 375.448 93.8463 378.222C93.3652 379.591 92.8841 380.997 92.403 382.477C91.922 383.956 91.4409 385.473 91.0338 387.212C90.3677 390.245 89.8126 393.279 89.1465 396.349C88.8134 397.718 88.5544 399.087 88.4433 400.419C88.3323 401.75 88.3693 403.082 88.4433 404.414C88.5544 407.04 88.9614 409.556 89.4055 411.924C89.8496 414.328 90.2567 416.548 90.4417 418.619C90.6267 420.691 90.7007 422.578 90.6267 424.243C90.5527 425.907 90.3307 427.35 90.0716 428.571C89.5535 430.938 88.8134 432.307 88.8134 432.307C87.1481 435.304 88.2213 439.077 91.2188 440.742C94.2164 442.406 97.991 441.334 99.6563 438.337C100.693 436.524 100.656 434.416 99.8414 432.64L99.8044 432.603C99.8044 432.603 99.1382 431.197 98.7312 428.793C98.5461 427.609 98.3981 426.129 98.3981 424.464C98.3981 422.8 98.5831 420.95 98.9162 418.878C99.2493 416.844 99.8044 414.661 100.433 412.331C101.063 410.037 101.692 407.595 102.099 405.08C102.284 403.822 102.469 402.564 102.506 401.269C102.543 399.975 102.469 398.68 102.358 397.385C102.173 395.24 101.84 392.909 102.469 390.8C102.876 389.616 103.394 388.507 104.023 387.397C104.319 386.879 104.615 386.361 104.948 385.843C105.318 385.325 105.651 384.807 105.984 384.289C107.428 382.255 109.056 380.257 110.573 378.333C112.091 376.41 113.534 374.486 114.866 372.636C116.161 370.787 117.419 369.011 118.493 367.346C122.193 361.834 131.519 350.366 121.897 345.446C118.9 343.966 115.384 344.558 113.053 346.63Z" fill="#FFCCBC"/>
<path d="M91.773 427.942C95.2146 425.759 97.546 426.869 98.8043 429.348C101.802 432.714 102.024 434.675 101.987 438.67C101.987 441.963 102.727 444.515 103.393 446.291C100.803 447.697 99.2113 443.701 98.2862 441.334C97.9161 448.104 98.5452 459.72 91.0699 450.952C89.8857 449.546 88.9975 447.919 88.3314 446.254C87.5913 444.367 87.4802 442.518 87.2582 440.52C86.8141 436.784 87.5173 432.788 89.8857 429.755C90.4038 429.089 91.0329 428.386 91.773 427.942Z" fill="#FFCCBC"/>
<path d="M99.5051 417.603L85.8457 418.982L86.9243 429.656L100.584 428.277L99.5051 417.603Z" fill="#9CCC65"/>
<path d="M104.06 391.281C103.986 392.983 103.838 394.685 103.653 396.386L102.876 403.637C102.654 406.042 102.358 408.446 102.062 410.888C101.803 413.292 101.507 415.697 101.174 418.139C101.026 419.322 100.508 420.432 99.7306 421.32L86.2232 419.692C84.8169 418.398 87.4814 389.875 87.8145 387.471C88.2586 386.287 88.7397 385.103 89.2207 383.92C91.8482 377.446 94.9197 371.12 98.2873 364.942C101.211 359.541 104.467 353.918 108.242 348.85C108.797 348.11 109.352 347.407 109.944 346.704C112.683 343.486 117.605 342.302 122.083 344.04C127.486 346.149 130.187 351.772 128.115 356.618C127.782 357.432 127.375 358.246 126.967 359.06C124.081 364.683 120.565 369.973 116.902 375.115C114.792 378.075 112.609 380.997 110.314 383.846C109.167 385.288 108.02 386.731 106.836 388.137C106.244 388.84 105.615 389.58 104.986 390.282L104.06 391.281Z" fill="#AADB6A"/>
<path d="M180.923 338.196C180.627 338.196 180.405 337.974 180.442 337.678L181.626 137.32C181.626 137.024 181.848 136.839 182.144 136.839C182.44 136.839 182.625 137.061 182.625 137.357L181.441 337.715C181.441 337.974 181.219 338.196 180.923 338.196Z" fill="#3E2723"/>
<path d="M194.908 151.341C202.013 155.484 201.976 162.18 194.834 166.249C187.692 170.319 176.146 170.245 169.04 166.101C161.935 161.921 161.972 155.262 169.114 151.193C176.257 147.124 187.84 147.198 194.908 151.341Z" fill="#BDBDBD"/>
<path d="M164.786 155.114C163.38 157.371 163.38 159.85 164.749 162.106L164.786 155.114Z" fill="#E0E0E0"/>
<path d="M170.746 150.379L170.635 166.952C174.928 168.95 180.442 169.653 185.585 169.061L185.696 148.419C180.59 147.79 175.076 148.419 170.746 150.379Z" fill="#E0E0E0"/>
<path d="M194.949 147.716C202.054 151.896 202.017 158.555 194.875 162.624C187.733 166.693 176.187 166.619 169.081 162.476C161.976 158.296 162.013 151.637 169.155 147.568C176.298 143.498 187.844 143.572 194.949 147.716Z" fill="#616161"/>
<path d="M194.949 144.127C202.054 148.27 202.017 154.966 194.875 159.036C187.733 163.105 176.187 163.031 169.081 158.888C161.976 154.744 162.013 148.048 169.155 143.979C176.298 139.91 187.881 139.947 194.949 144.127Z" fill="#BDBDBD"/>
<path d="M164.823 147.901C163.417 150.157 163.417 152.599 164.786 154.893L164.823 147.901Z" fill="#E0E0E0"/>
<path d="M170.783 143.129L170.672 159.702C174.965 161.699 180.479 162.402 185.623 161.81L185.734 141.168C180.627 140.539 175.113 141.205 170.783 143.129Z" fill="#E0E0E0"/>
<path d="M194.986 140.502C202.091 144.645 202.054 151.304 194.912 155.41C187.77 159.48 176.224 159.406 169.118 155.262C162.013 151.119 162.05 144.423 169.192 140.354C176.335 136.285 187.881 136.359 194.986 140.502Z" fill="#616161"/>
<path d="M195.023 136.876C202.128 141.02 202.091 147.715 194.949 151.785C187.807 155.854 176.261 155.78 169.156 151.637C162.05 147.493 162.087 140.798 169.23 136.728C176.335 132.659 187.918 132.733 195.023 136.876Z" fill="#BDBDBD"/>
<path d="M164.901 140.65C163.495 142.906 163.495 145.348 164.864 147.642L164.901 140.65Z" fill="#E0E0E0"/>
<path d="M170.82 135.915L170.709 152.488C175.002 154.485 180.516 155.188 185.66 154.596L185.771 133.954C180.664 133.325 175.15 133.954 170.82 135.915Z" fill="#E0E0E0"/>
<path d="M195.023 133.251C202.128 137.394 202.091 144.09 194.949 148.159C187.807 152.229 176.261 152.155 169.156 148.011C162.05 143.868 162.087 137.172 169.23 133.103C176.372 129.034 187.918 129.108 195.023 133.251Z" fill="#616161"/>
<path d="M195.058 129.663C202.164 133.806 202.127 140.502 194.984 144.571C187.842 148.641 176.296 148.567 169.191 144.423C162.085 140.28 162.122 133.584 169.265 129.515C176.407 125.409 187.953 125.483 195.058 129.663Z" fill="#BDBDBD"/>
<path d="M164.936 133.436C163.53 135.693 163.53 138.171 164.899 140.428L164.936 133.436Z" fill="#E0E0E0"/>
<path d="M170.855 128.664L170.744 145.237C175.037 147.235 180.551 147.938 185.695 147.346L185.806 126.703C180.736 126.074 175.185 126.74 170.855 128.664Z" fill="#E0E0E0"/>
<path d="M193.1 130.773C199.095 134.287 199.058 139.947 193.026 143.387C186.957 146.828 177.15 146.791 171.155 143.276C165.16 139.762 165.16 134.102 171.229 130.662C177.261 127.184 187.068 127.258 193.1 130.773Z" fill="#616161"/>
<path d="M226.07 89.0437C226.218 64.9239 206.753 45.2433 182.624 45.0953C158.496 44.9473 138.809 64.406 138.661 88.5258C138.587 104.1 146.654 117.788 158.866 125.593C166.675 131.29 167.267 137.209 167.267 137.209C167.378 139.281 168.821 141.353 171.56 142.98C177.333 146.347 186.732 146.421 192.579 143.091C195.355 141.501 196.798 139.466 196.946 137.357C196.946 137.357 197.612 131.438 205.458 125.815C217.744 118.232 225.996 104.618 226.07 89.0437Z" fill="#FFB300"/>
<path d="M182.07 144.164C178.332 144.127 174.89 143.313 172.3 141.797C170.08 140.502 168.821 138.874 168.71 137.172C168.636 136.174 168.192 134.953 167.748 133.954C167.341 132.955 166.786 131.993 166.231 131.105C164.566 128.553 162.234 126.037 159.681 124.373C147.357 116.493 140.067 103.101 140.141 88.5258C140.289 65.2199 159.348 46.3901 182.662 46.5381C205.939 46.6861 224.812 65.7378 224.664 89.0438C224.59 103.619 217.115 116.937 204.681 124.669C202.497 126.037 200.573 127.813 199.019 129.848C198.242 130.884 197.538 131.993 196.946 133.14C196.132 134.805 195.873 136.359 195.355 138.06C194.837 139.762 193.394 141.02 191.876 141.871C189.249 143.387 185.77 144.164 182.07 144.164Z" fill="#FFD54F"/>
<path d="M197.834 52.7529C206.235 57.6731 206.198 65.5527 197.723 70.3619C189.286 75.1711 175.593 75.0971 167.23 70.1769C158.829 65.2568 158.866 57.3771 167.341 52.568C175.778 47.7958 189.471 47.8698 197.834 52.7529Z" fill="#FFF59D"/>
<path d="M191.023 130.921C195.908 133.806 195.908 138.393 190.949 141.205C186.027 144.016 178.033 143.979 173.149 141.094C168.264 138.245 168.264 133.621 173.223 130.81C178.144 127.998 186.138 128.035 191.023 130.921Z" fill="#FFA000"/>
<path d="M175.814 136.285C175.073 136.285 174.444 135.73 174.407 134.953L170.411 86.6022C170.337 85.8254 170.929 85.1225 171.706 85.0485C172.52 84.9745 173.186 85.5664 173.26 86.3433L177.257 134.694C177.331 135.471 176.739 136.174 175.962 136.248C175.888 136.285 175.851 136.285 175.814 136.285Z" fill="#FFFDE7"/>
<path d="M171.338 101.326C166.713 101.289 162.938 97.5152 162.975 92.854C163.012 88.2298 166.787 84.4564 171.449 84.4934C176.075 84.5304 179.85 88.3038 179.813 92.965C179.776 97.6262 175.964 101.363 171.338 101.326ZM171.412 85.9362C167.564 85.8992 164.418 89.0437 164.381 92.891C164.344 96.7383 167.49 99.8828 171.338 99.9198C175.187 99.9568 178.333 96.8493 178.37 92.965C178.37 89.1176 175.261 85.9732 171.412 85.9362Z" fill="#FFFDE7"/>
<path d="M178.666 101.363C174.041 101.326 170.266 97.5522 170.303 92.891C170.34 88.2668 174.152 84.4934 178.778 84.5304C183.403 84.5674 187.178 88.3408 187.141 93.002C187.104 97.6632 183.292 101.4 178.666 101.363ZM178.741 85.9732C174.892 85.9362 171.746 89.0436 171.709 92.928C171.672 96.7753 174.818 99.9198 178.666 99.9568C182.515 99.9938 185.661 96.8493 185.698 93.002C185.698 89.1546 182.589 86.0102 178.741 85.9732Z" fill="#FFFDE7"/>
<path d="M185.995 101.437C181.369 101.4 177.594 97.6263 177.631 92.9651C177.668 88.3409 181.443 84.5675 186.106 84.6045C190.768 84.6415 194.506 88.4149 194.469 93.0761C194.432 97.7003 190.62 101.437 185.995 101.437ZM186.069 86.0103C182.22 85.9733 179.074 89.0807 179.037 92.9651C179 96.8124 182.109 99.9569 185.958 99.9939C189.806 100.031 192.952 96.8864 192.989 93.0391C193.026 89.1917 189.917 86.0473 186.069 86.0103Z" fill="#FFFDE7"/>
<path d="M193.319 101.474C188.693 101.437 184.918 97.6633 184.955 93.0021C184.992 88.3409 188.804 84.6045 193.43 84.6415C198.056 84.6785 201.83 88.4519 201.793 93.113C201.756 97.7372 197.945 101.474 193.319 101.474ZM193.393 86.0473C189.544 86.0103 186.399 89.1547 186.362 93.0021C186.325 96.8494 189.433 99.9939 193.319 100.031C197.168 100.068 200.313 96.9604 200.35 93.0761C200.35 89.2287 197.242 86.0843 193.393 86.0473Z" fill="#FFFDE7"/>
<path d="M188.399 136.358C188.362 136.358 188.325 136.358 188.288 136.358C187.511 136.284 186.919 135.582 186.993 134.805L191.581 86.4911C191.655 85.7142 192.359 85.1223 193.136 85.1963C193.913 85.2703 194.505 85.9732 194.431 86.75L189.842 135.064C189.768 135.804 189.139 136.358 188.399 136.358Z" fill="#FFFDE7"/>
<path d="M182.772 27.4123C181.958 27.4123 181.329 26.7464 181.329 25.9695L181.477 1.40576C181.477 0.628898 182.143 -0.0369873 182.92 -0.0369873C183.697 -0.0369873 184.363 0.628898 184.363 1.40576L184.215 25.9695C184.178 26.7834 183.549 27.4123 182.772 27.4123ZM152.389 35.3659C153.093 34.959 153.315 34.1081 152.944 33.4052L140.806 12.0599C140.436 11.357 139.548 11.1351 138.845 11.542C138.142 11.9489 137.92 12.7998 138.29 13.5027L150.428 34.848C150.687 35.2919 151.168 35.5879 151.649 35.5879C151.908 35.5509 152.167 35.4769 152.389 35.3659ZM130.074 57.4141C130.482 56.7482 130.259 55.8604 129.556 55.4534L108.352 43.0606C107.648 42.6536 106.797 42.9126 106.39 43.5785C105.983 44.2444 106.205 45.1322 106.908 45.5391L128.113 57.932C128.335 58.08 128.557 58.117 128.816 58.117C129.297 58.117 129.815 57.858 130.074 57.4141ZM121.748 87.6749C121.748 86.898 121.119 86.2321 120.305 86.2321L95.7323 86.0841C94.9552 86.0841 94.2891 86.713 94.2891 87.4899C94.2891 88.2668 94.9182 88.9326 95.7323 88.9326L120.305 89.0806C121.119 89.1176 121.748 88.4517 121.748 87.6749ZM107.833 132.141L129.186 120.007C129.889 119.6 130.111 118.749 129.704 118.047C129.334 117.344 128.446 117.122 127.743 117.529L106.39 129.663C105.724 130.07 105.465 130.92 105.872 131.623C106.131 132.067 106.612 132.326 107.093 132.326C107.352 132.326 107.611 132.252 107.833 132.141ZM258.376 132.474C258.783 131.808 258.561 130.92 257.895 130.513L236.69 118.121C236.024 117.714 235.136 117.936 234.729 118.639C234.322 119.341 234.544 120.192 235.247 120.599L256.452 132.992C256.674 133.14 256.896 133.177 257.155 133.177C257.636 133.214 258.117 132.955 258.376 132.474ZM270.44 88.5627C270.44 87.7859 269.811 87.12 268.997 87.12L244.425 86.972C243.648 86.972 242.982 87.6009 242.982 88.4147C242.982 89.1916 243.611 89.8575 244.425 89.8575L268.997 90.0055C269.811 89.9685 270.44 89.3396 270.44 88.5627ZM237.023 58.5609L258.376 46.427C259.079 46.0571 259.301 45.1692 258.894 44.4663C258.487 43.7635 257.636 43.5415 256.933 43.9114L235.58 56.0453C234.914 56.4523 234.655 57.3031 235.062 58.006C235.321 58.4499 235.802 58.7089 236.283 58.7089C236.579 58.7459 236.801 58.7089 237.023 58.5609ZM215.005 35.2179L227.402 14.0206C227.809 13.3547 227.587 12.4669 226.884 12.0599C226.218 11.653 225.329 11.875 224.922 12.5778L212.525 33.7752C212.118 34.4411 212.34 35.3289 213.043 35.7358C213.265 35.8838 213.524 35.9208 213.746 35.9208C214.227 35.9208 214.708 35.6618 215.005 35.2179Z" fill="#FFFDE7"/>
<path d="M184.108 243.344L180.519 247.154C179.779 249.374 179.89 251.927 180.038 254.257C180.445 259.843 186.514 254.664 188.216 252.777C189.659 251.224 189.4 250.632 188.586 248.819C187.624 246.526 185.885 244.972 184.108 243.344Z" fill="#EAA292"/>
<path d="M180.182 245.194C179.405 246.007 177.037 249.041 176.889 250.558L178.961 254.59C180.108 252.592 180.922 250.817 181.588 248.671C181.848 247.746 181.996 246.895 182.773 246.34C184.142 245.342 185.104 243.455 184.327 242.641C182.662 243.455 181.514 243.751 180.182 245.194Z" fill="#F2B09E"/>
</g>
<defs>
<clipPath id="clip0">
<rect width="315" height="631" fill="white"/>
</clipPath>
</defs>
</svg>
